<?xml version="1.0" encoding="UTF-8"?>
<svg xmlns="http://www.w3.org/2000/svg" viewBox="0 0 145.46 171.19">
  <defs>
    <style>
      .cls-1, .cls-2, .cls-3, .cls-4, .cls-5, .cls-6, .cls-7, .cls-8, .cls-9, .cls-10, .cls-11, .cls-12 {
        mix-blend-mode: multiply;
      }

      .cls-1, .cls-13, .cls-4, .cls-14, .cls-8, .cls-15, .cls-16 {
        fill: #faa61a;
      }

      .cls-2, .cls-17 {
        fill: #9ddcf9;
      }

      .cls-18, .cls-6, .cls-19 {
        fill: #f7acb4;
      }

      .cls-3, .cls-20, .cls-21 {
        fill: #fff8a3;
      }

      .cls-22 {
        fill: #491d21;
      }

      .cls-4 {
        opacity: .6;
      }

      .cls-5, .cls-12, .cls-23 {
        fill: #f58674;
      }

      .cls-24 {
        fill: #272e67;
      }

      .cls-20 {
        opacity: .64;
      }

      .cls-20, .cls-19, .cls-14, .cls-15, .cls-16 {
        mix-blend-mode: screen;
      }

      .cls-25 {
        fill: #fff;
      }

      .cls-19, .cls-7, .cls-8, .cls-9, .cls-11 {
        opacity: .65;
      }

      .cls-7, .cls-26 {
        fill: #f27173;
      }

      .cls-27 {
        fill: #ffcb05;
      }

      .cls-28 {
        fill: #f0c900;
      }

      .cls-29 {
        isolation: isolate;
      }

      .cls-9, .cls-30 {
        fill: #cbcbcb;
      }

      .cls-15 {
        opacity: .8;
      }

      .cls-10 {
        fill: #b25329;
      }

      .cls-11, .cls-31 {
        fill: #118acb;
      }

      .cls-12 {
        opacity: .45;
      }

      .cls-16 {
        opacity: .5;
      }
    </style>
  </defs>
  <g class="cls-29">
    <g id="Layer_2" data-name="Layer 2">
      <g id="Layer_1-2" data-name="Layer 1">
        <path class="cls-25" d="M132.69,158.61c3.07-1.97,5.75-4.41,7.77-7.42,3.11-4.68,4.47-10.39,4.36-15.99-.26.78-.63,1.52-1.04,2.22-.62,1.05-1.33,2.02-2.13,2.94-.13.15-.37-.01-.29-.18.23-.48.43-.97.62-1.46,2.7-7.06,1.36-14.93-2.73-21.26,1.1,1.68,1.51,3.7,1.9,5.65.03.22-.28.28-.34.07-1.5-3.57-4.09-6.61-6.87-9.26-2.29-2.07-6.91-5.92-10.03-3.93-1.52,1.18-1.97,3.31-1.88,5.16.33,4.31,2.86,8.71,5.63,12.38.24.32.48.64.72.94.63.57,1.18,1.24,1.62,1.97.12.18-.15.37-.28.21-.55-.63-1.06-1.27-1.57-1.92-.58-.52-1.23-.97-1.94-1.32-.2-.1-.41-.19-.61-.28.44.38.86.79,1.25,1.24,3.04,3.4,4.12,8.14,3.99,12.62-.04,1.8-.28,3.6-1.04,5.27-.05.19-.35.16-.35-.05.08-2.86-.64-5.71-1.94-8.26-.31-.61-.65-1.2-1.02-1.76.21,1.27.21,2.59,0,3.85-1.03,5.8-6.19,9.83-11.45,11.77-.14.05-.27.09-.41.14,1.36-.06,2.74.02,4.1.25,2.79.43,5.59,1.49,7.58,3.58,2.03,2.02,2.88,5.24,1.73,7.92,3.66-1.35,7.12-3.26,10-5.91.73-.67,1.44-1.37,2.09-2.12-.95.62-1.96,1.14-2.98,1.62-1.4.64-2.83,1.19-4.31,1.65-.19.05-.31-.2-.15-.31Z"/>
        <path class="cls-9" d="M132.69,158.61c3.07-1.97,5.75-4.41,7.77-7.42,3.11-4.68,4.47-10.39,4.36-15.99-.26.78-.63,1.52-1.04,2.22-.62,1.05-1.33,2.02-2.13,2.94-.13.15-.37-.01-.29-.18.23-.48.43-.97.62-1.46,2.7-7.06,1.36-14.93-2.73-21.26,1.1,1.68,1.51,3.7,1.9,5.65.03.22-.28.28-.34.07-.7-1.67-1.65-3.23-2.74-4.68.31.78.59,1.58.82,2.4.75,2.63,1.16,5.38,1.22,8.12.05,2.45-.17,5-1.05,7.31.75-.62,1.35-1.38,1.79-2.27.07-.15.35-.09.33.09-.13,1.01-.3,2.01-.51,3.01-.41,1.93-.99,3.82-1.77,5.63-.64,1.48-1.43,2.91-2.45,4.15,1.14-.54,2.18-1.28,3.21-2.01.14-.1.35.1.24.24-1.45,1.88-2.73,3.96-4.61,5.45-.87.69-1.88,1.26-2.96,1.56-1.09.3-2.21.22-3.28-.12-1.11-.35-2.13-.92-3.2-1.38-.91-.39-1.87-.69-2.83-.93-.96-.24-1.97-.42-2.99-.5-1.56,1.07-3.27,1.93-4.99,2.56-.14.05-.27.09-.41.14,1.36-.06,2.74.02,4.1.25,2.79.43,5.59,1.49,7.58,3.58,2.03,2.02,2.88,5.24,1.73,7.92,3.66-1.35,7.12-3.26,10-5.91.73-.67,1.44-1.37,2.09-2.12-.95.62-1.96,1.14-2.98,1.62-1.4.64-2.83,1.19-4.31,1.65-.19.05-.31-.2-.15-.31Z"/>
        <polygon class="cls-22" points="139.25 117.46 139.25 117.46 139.25 117.46 139.25 117.46"/>
        <path class="cls-22" d="M140.94,154.67c-1.86,1.38-3.98,2.39-6.15,3.21,1.5-.9,2.91-1.97,4.16-3.22,5.31-5.32,7.42-13.36,6.18-20.69-.02-.19-.33-.19-.35,0-.35,1.87-1.36,3.57-2.52,5.08,2.55-6.12,1.95-13.35-1.33-19.1-.49-.88-1.04-1.72-1.67-2.5,4.1,6.33,5.43,14.2,2.73,21.26-.19.49-.4.98-.62,1.46-.08.17.16.33.29.18.8-.91,1.51-1.89,2.13-2.94.41-.7.77-1.44,1.04-2.22.12,5.6-1.25,11.31-4.36,15.99-2.02,3.01-4.7,5.46-7.77,7.42-.17.12-.05.36.15.31,1.48-.46,2.91-1.01,4.31-1.65,1.03-.48,2.03-1,2.98-1.62-.65.75-1.36,1.45-2.09,2.12-2.88,2.65-6.34,4.56-10,5.91,1.16-2.68.31-5.9-1.73-7.92-2-2.09-4.8-3.14-7.58-3.58-1.35-.23-2.73-.31-4.1-.25.13-.05.27-.09.41-.14,5.26-1.93,10.42-5.97,11.45-11.77.21-1.27.21-2.59,0-3.85.37.56.71,1.16,1.02,1.76,1.29,2.55,2.02,5.4,1.94,8.26,0,.2.3.23.35.05.76-1.67.99-3.47,1.04-5.27.12-4.47-.95-9.21-3.99-12.62-.38-.44-.8-.85-1.25-1.24.21.09.41.18.61.28.7.35,1.35.79,1.94,1.32.51.65,1.03,1.29,1.57,1.92.13.16.4-.03.28-.21-.43-.73-.98-1.4-1.62-1.97-.24-.31-.48-.63-.72-.94-2.77-3.67-5.31-8.07-5.63-12.38-.09-1.85.36-3.98,1.88-5.16,3.13-1.99,7.74,1.87,10.03,3.93,2.78,2.66,5.37,5.7,6.87,9.26.06.21.38.15.34-.07-.39-1.95-.8-3.97-1.9-5.65.71,1.25,1.06,2.65,1.31,4.07-.61-1.29-1.46-2.47-2.32-3.6-1.21-1.55-2.55-3-4-4.33-2.42-2.15-7.21-6.04-10.51-3.88-1.63,1.27-2.1,3.47-2.02,5.43.28,3.98,2.31,7.55,4.44,10.81.38.57.79,1.14,1.19,1.7-.31-.21-.64-.4-.97-.57-.5-.25-1.01-.45-1.56-.6-.06-.02-.12,0-.16.04-.08.07-.07.2.01.27.45.44.93.95,1.34,1.42,2.91,3.53,3.92,8.23,3.77,12.72-.03.8-.08,1.59-.13,2.39-.29-1.93-.91-3.81-1.79-5.55-.44-.87-.93-1.7-1.52-2.49-.03-.05-.08-.08-.14-.08-.12,0-.19.1-.17.21-.07,2.01-.31,3.96-1.01,5.76-2,5.5-7.3,8.92-12.56,10.98.87-1.65,1.53-3.38,2.07-5.17,1.76-5.99,2.61-14.35-3.44-18.19-.81-.51-1.69-.91-2.6-1.22-.02-1.35-.47-2.64-.95-3.87-.51-1.33-1.16-2.59-1.85-3.82-4.22-7.25-10.41-13.2-17.11-18.15.38-1.31.26-2.61-.82-3.76-.46-.43-.99-.75-1.59-.95l-.86-1.87c-.16-.25-.31-.51-.46-.76-7.25,1.79-14.65,3.21-21.94,4.51-1.78.27-5,.72-6.82.97-1.31.12-2.61.21-3.92.31-.89.06-1.78.12-2.68.17-.02.29-.06.58-.1.86h0c-.01.09-.02.2-.03.32,0,0-.02.02-.02.03,0,0,0,0,0,0,0,.06-.06.11-.12.14-.41.5-.7,1.08-.85,1.71-.15.7-.11,1.39.06,2.06-.93.62-3.77,3.39-3.06,14.16.17,2.65.34,5.74.5,8.97-6.44,3.98-6.27,11.77-3.83,18.13.79,1.9,1.43,3.93,2.86,5.46-2.92-.56-5.91-.69-8.87-.46-2.75.32-5.72.57-8.08,2.15-3.26,2.08-5.12,6.45-3.12,10.02,1.79,3.39,6.35,4.65,9.92,4.4.8-.07,1.61-.22,2.37-.5.24.36.52.69.85.99,1.49,1.24,3.7,1.87,5.54,1.07.33-.15.62-.36.87-.61.14.11.28.21.44.31,1.61,1.01,3.57,1.53,5.47,1.28,1.76-.2,3.41-.94,4.76-2.03.45.43,1.05.74,1.82.9,1.04.24,2.08.13,3.03.06.98-.09,1.96-.21,2.95-.48,3.58-.88,4.39-4.19,4.31-7.43-.01-.74-.06-1.47-.12-2.2.3.12.71.22,1.24.28-.48,1.84-.51,3.79-.02,5.65.24.89.66,1.76,1.33,2.45,1.31,1.39,3.32,1.78,5.14,1.7.9-.03,1.81-.16,2.59-.7.01,0,.02-.02.03-.03.69.86,1.6,1.52,2.69,1.81,1.17.37,2.39.41,3.57.31,1.18-.1,2.39-.36,3.46-.99.54-.29.98-.67,1.35-1.11.71.33,1.45.54,2.23.64,2.34.35,4.68-.83,5.86-2.84.71.19,1.46.2,2.19.15.81-.05,1.61-.19,2.38-.44,3.02,3.75,11.56,3.65,15.94,3.08,4.05-.53,8.77-1.47,10.79-5.44,1.2-.32,2.4-.71,3.53-1.24,3.9-1.78,7.41-4.51,9.88-8.05.12-.15-.11-.37-.26-.23ZM63.93,99.25c5.39-.99,10.83-1.92,16.23-3.01-9.22,4.36-18.87,4.33-22.93,4.06,2.14-.34,4.83-.71,6.7-1.05ZM55.72,100.53c.79.08,2.41.22,4.59.22,5.15,0,13.41-.76,21.18-4.78.98-.2,1.95-.41,2.93-.63-1.55,1.78-8.45,5.43-18.35,7.02-.07.01-.14.02-.21.03,0,0-.01,0-.01,0-2.58.4-4.77.51-6.61.43-4.2-.16-6.61-1.24-7.64-1.84,1.38-.15,2.8-.3,4.14-.46ZM49.71,101.2c.19-.02.37-.03.52-.06.26-.03.52-.06.78-.08.76.53,3.12,1.88,7.78,2.12,2,.1,4.43,0,7.33-.47.06-.01.12-.02.18-.03h0c10.33-1.69,17.42-5.5,18.61-7.43l.92,2.01c.06.14.12.28.16.42.36,1.07.27,2.23-.27,3.19-3.14,5.64-10.1,8.26-14.29,9.36h0c-.05.02-.1.03-.15.04-.09.02-.19.05-.28.07-1.12.28-2.01.44-2.5.53-.03,0-.06.01-.09.02-.09.01-.16.02-.21.03-.09.01-.14.02-.14.02,0,0,0,0,0,0h-.01c-1,.23-2.03.36-3.02.41-1.72.09-3.35-.04-4.65-.23-1.17-.16-2.08-.37-2.55-.48-.23-.06-.36-.09-.36-.1h0s0,0,0,0c-.04,0-.09-.02-.13-.03,0,0,0,0,0,0-2.92-.59-5.05-1.85-6.32-3.74-1.48-2.2-1.38-4.67-1.28-5.57ZM49.31,102.24c.01,1.22.26,3.03,1.4,4.72,1.35,2,3.59,3.32,6.67,3.92.01,0,.07.02.16.04h0c.06.02.13.04.21.06.58.14,1.81.42,3.37.59.85.09,1.81.16,2.81.16.1,0,.21,0,.31,0,1.2-.02,2.47-.13,3.72-.41.05-.01.11-.02.16-.03.16-.02,13.22-1.78,17.92-10.25.02-.03.04-.07.06-.11.02-.03.03-.05.04-.08.5-1.02.56-2.22.18-3.32.91.48,1.66,1.31,1.81,2.3.24,1.73-.85,3.44-1.88,4.8-2.65,3.37-6.41,5.67-10.45,7-2.31.77-4.72,1.31-7.16,1.49h-.01c-.69.8-1.48,1.47-2.49,1.87-3.14,1.23-6.11.78-8.27-1.94-2.65-.63-4.96-2.22-6.7-4.27-1.55-1.82-3.08-4.24-1.85-6.54ZM44.3,149.36c-.48-.97-.91-1.97-1.29-2.98-1.98-5.11-2.83-11.62,1.28-15.92.37-.37.77-.77,1.19-1.1,0,0,.2-.16.38-.3.45,9.16.82,19.33.97,23.59-.43-.11-.86-.22-1.3-.31-.29-1.07-.75-2.03-1.22-2.97ZM34.7,167.75c-.26,0-.51,0-.77,0-.02-.17-.07-.31-.13-.45-.27-.44-.54-1.02-.75-1.5-.08-.21-.24-.73-.32-.94-.08-.31-.15-.66-.22-.97-.33-2.1.16-4.33,1.42-6.05.07-.08-.06-.2-.13-.12-1.29,1.39-1.98,3.29-1.98,5.19-.01.34.05.72.07,1.07.07.34.13.72.21,1.05.08.23.25.8.33,1.02.09.22.34.75.44.98.13.23.25.48.42.7-1.7-.13-3.49-.56-4.99-1.36-.53-.75-.83-1.66-1.02-2.55-.86-3.87.74-6.63,4.11-8.56.1-.05.03-.2-.07-.16-1.71.66-3.23,1.84-4.17,3.43-.3.54-.55,1.14-.67,1.75-.32,1.83-.14,3.8.81,5.42.01.03.03.05.05.08-1.49-1.06-2.55-2.58-2.68-4.65-.24-3.6,2.68-6.84,6.02-7.84,5.23-1.4,10.89-1.52,16.17-.26.03.97.05,1.55.06,1.67-3.73.29-7.65,1.44-9.77,4.72-1.47,2.35-1.66,5.74-.2,8.14-.73.14-1.48.2-2.22.21ZM66.96,158.86c-.29-2.88-.88-5.72-1.45-8.56-.71-3.18-1.31-6.41-2.33-9.51,1.59,1.79,3.35,3.43,5.25,4.87.99.75,2.04,1.4,3.09,2.07-.01.15-.01.3-.02.46-.12,2.39-.51,5.32-1,7.35-.91,1.1-1.59,2.38-2.03,3.73-.86-.08-1.29-.27-1.5-.41ZM127.45,161.67c-.14,1.28-.72,2.45-1.57,3.39.18-.68.26-1.39.28-2.1.21-3.92-2.57-7.36-6.26-8.43-.22-.1-.37.22-.15.31,2.69,1.11,5.01,3.42,5.45,6.37.3,1.58-.03,3.09-.21,4.68-.17.14-.36.27-.54.39-1.13.76-2.42,1.22-3.75,1.54.44-.93.57-1.99.73-3,.39-2.86-.19-6.34-2.81-8.01-.2-.12-.37.18-.18.3,2.76,2.4,2.48,6.59,1.61,9.82-.03.1-.15.63-.19,1.07-1,.2-2.02.34-3.01.48-3.99.5-8.11.34-12-.7-1.27-.35-2.58-.74-3.6-1.54-.05-.04-.11-.07-.18-.06-1.42.15-2.95.4-4.38.27.02-.04.04-.08.06-.12.84-1.89.48-4.08-.4-5.87-.61-1.24-1.47-2.36-2.5-3.28-.06-.1-.12-.2-.17-.3s-.11-.2-.16-.31c-.05-.1-.1-.2-.15-.3,0,0,0-.01-.01-.02-2.27-4.67-2.15-11.02-2.03-16.01.01-.12-.18-.13-.19-.02-.19,1.51-.28,3.02-.32,4.54-.04,2.96.03,8.23,1.69,11.38-.88-.56-1.84-.99-2.85-1.25.11-.62.22-1.25.27-1.88.17-2.06.09-4.36-.01-6.43-.47-8.54-1.55-17.03-2.88-25.47,0-.05-.06-.09-.11-.08-.05,0-.09.06-.08.11.36,2.82.67,5.65.98,8.48.81,7.75,1.59,15.57,1.48,23.37,0,.05,0,.09,0,.14,0,.1,0,.21,0,.32,0,.11,0,.23,0,.34,0,.06,0,.12,0,.18,0,.28-.02.56-.02.84-.38-.08-.76-.14-1.15-.17-3.39-.27-6.9-.33-10.18.73-1.63.51-3.16,1.34-4.5,2.4.7-.49,1.42-.93,2.19-1.3,3.86-1.85,8.28-1.75,12.44-1.3,3.3.35,6.23,2.64,7.64,5.59.94,1.95,1.17,4.5-.32,6.21-1.53,2.1-4.38,2.46-6.74,1.74.98-1.39,1.26-3.26,1.03-4.94-.15-1.18-.44-2.32-.9-3.41-.03-.08-.13-.13-.22-.1-.09.03-.14.14-.11.23,1.21,3.64,1.26,8.56-3.28,9.63-6.35,1.51-9.52-1.98-8.85-8.24.01-.09-.05-.19-.14-.2s-.19.04-.2.14c-.22,1.17-.25,2.34-.12,3.53.11,1.18.53,2.37,1.23,3.36-.85-.06-1.64.06-2.44.11-.83.03-1.66-.02-2.43-.24-2.65-.65-3.49-3.2-3.59-5.67-.13-2.53.68-5.08,2.12-7.16.11-.4.2-.79.28-1.19.03-.13.05-.27.08-.4.38-1.97.54-3.98.67-5.97.37-7.53-.2-15.09-1.09-22.57,0-.05-.05-.08-.09-.07-.05,0-.08.05-.07.09.3,2.49.53,4.99.71,7.49.34,4.74.52,9.5.28,14.25-1.37-1.18-2.76-2.29-4.07-3.54-5.98-5.47-10.91-12.6-12.21-20.74,0-.06-.09-.05-.09,0,.12,2.55.79,5.06,1.71,7.45,1.33,3.42,3.25,6.59,5.61,9.4.19.63.36,1.34.51,1.96.64,2.83,1.13,5.68,1.65,8.53.12.84.31,1.89.51,3.05.02.1.04.2.06.3.02.12.04.23.06.35.02.12.04.24.06.36.04.23.08.45.12.69.03.17.06.34.08.51.09.59.18,1.2.26,1.81,0,0,0,.01,0,.02.05.35.09.7.12,1.06.02.16.03.32.05.47.02.26.04.51.06.77.03.38.05.76.06,1.14,0,.3.01.6.01.89,0,.88-.07,1.71-.21,2.47,0,.04-.02.08-.02.12-.11.52-.25,1-.43,1.43-.09.22-.2.43-.31.62-.1.17-.22.33-.34.47-1.26,1.36-3.21,1.59-4.98,1.81-5.25.91-6.07-2.36-4.94-6.72.07-.21-.25-.33-.33-.12-.81,2.01-1.14,4.89.23,6.54-.64.37-1.33.68-2.02.93-2.77,1.01-6.25.73-8.4-1.41-2.11-2.37-1.26-5.92-.18-8.61.04-.08,0-.19-.07-.23-.08-.05-.19-.01-.24.07-.45.81-.78,1.67-1.05,2.55-.27.88-.43,1.81-.45,2.75-.07,1.58.51,3.25,1.66,4.36-.61.31-1.27.45-1.96.42-1.61-.07-3.4-.74-4.28-2.17-1.33-2.21-1.29-5.18.05-7.38,2.22-3.49,6.65-4.47,10.53-4.68,4.86-.3,10.31.47,13.97,3.97-3.47-3.69-9.13-4.7-13.99-4.5-.34.01-.69.03-1.04.05,0-.04,0-.1,0-.21,0-.04,0-.09,0-.14,0-.09,0-.19-.01-.31,0-.08,0-.16,0-.25,0-.09,0-.19-.01-.29,0-.07,0-.15,0-.23,0-.06,0-.13,0-.2,0-.18-.01-.36-.02-.56,0-.12,0-.23-.01-.35,0-.04,0-.08,0-.12-.23-6.36-.82-22.49-1.47-32.37-.42-6.41.46-9.88,1.26-11.65.57-1.26,1.19-1.86,1.55-2.13.41,1.27,1.27,2.43,2.1,3.42,1.82,2.1,4.38,3.69,7.17,4,1.77,3.15,5.49,3.72,8.59,2.22.96-.49,1.83-1.18,2.33-2.16,2.46-.12,4.89-.56,7.23-1.3,2.96-.91,5.8-2.33,8.18-4.35,1.44-1.28,3.53-3.39,4.32-5.56,2.11,1.66,4.15,3.44,6.09,5.31,3.98,3.84,7.69,8.06,10.42,12.88.67,1.21,1.29,2.44,1.77,3.72.44,1.12.74,2.25,1.19,3.38-.84-.26-1.7-.47-2.55-.65-5.57-1.24-11.79.38-14.26,5.95-.09.23.26.35.33.13.81-1.75,2.23-3.25,3.88-4.26,4.29-2.57,9.72-1.71,14.13.12.36.2.93.46,1.26.71,5.74,3.72,4.72,11.67,3.08,17.37-.35,1.24-.75,2.47-1.17,3.7-.1.29-.2.57-.3.86-.11.31-.22.62-.34.93-4.64.91-8.83,3.61-10.97,8.09-.1.22.23.36.32.14,2.51-4.83,7.9-7.72,13.28-7.74,4.02-.06,8.4.8,11.18,3.87,1.2,1.37,1.92,3.21,1.7,5.04Z"/>
        <path class="cls-13" d="M71.51,147.73c-.01.15-.01.3-.02.46-.12,2.39-.51,5.32-1,7.35-.91,1.1-1.59,2.38-2.03,3.73-.86-.08-1.29-.27-1.5-.41-.29-2.88-.88-5.72-1.45-8.56-.71-3.18-1.31-6.41-2.33-9.51,1.59,1.79,3.35,3.43,5.25,4.87.99.75,2.04,1.4,3.09,2.07Z"/>
        <path class="cls-1" d="M71.51,147.73c-.01.15-.01.3-.02.46-.12,2.39-.51,5.32-1,7.35-.91,1.1-1.59,2.38-2.03,3.73-.86-.08-1.29-.27-1.5-.41-.29-2.88-.88-5.72-1.45-8.56-.71-3.18-1.31-6.41-2.33-9.51,1.59,1.79,3.35,3.43,5.25,4.87.99.75,2.04,1.4,3.09,2.07Z"/>
        <path class="cls-1" d="M71.51,147.73c-.01.15-.01.3-.02.46-.12,2.39-.51,5.32-1,7.35-.91,1.1-1.59,2.38-2.03,3.73-.86-.08-1.29-.27-1.5-.41-.29-2.88-.88-5.72-1.45-8.56-.71-3.18-1.31-6.41-2.33-9.51,1.59,1.79,3.35,3.43,5.25,4.87.99.75,2.04,1.4,3.09,2.07Z"/>
        <path class="cls-13" d="M132.84,158.93c1.48-.46,2.91-1.01,4.31-1.65,1.03-.48,2.03-1,2.98-1.62-.65.75-1.36,1.45-2.09,2.12-2.88,2.65-6.34,4.56-10,5.91,1.16-2.68.31-5.9-1.73-7.92-2-2.09-4.8-3.14-7.58-3.58-1.35-.23-2.73-.31-4.1-.25.13-.05.27-.09.41-.14,5.26-1.93,10.42-5.97,11.45-11.77.21-1.27.21-2.59,0-3.85.37.56.71,1.16,1.02,1.76,1.29,2.55,2.02,5.4,1.94,8.26,0,.2.3.23.35.05.76-1.67.99-3.47,1.04-5.27.12-4.47-.95-9.21-3.99-12.62-.38-.44-.8-.85-1.25-1.24.21.09.41.18.61.28.7.35,1.35.79,1.94,1.32.51.65,1.03,1.29,1.57,1.92.13.16.4-.03.28-.21-.43-.73-.98-1.4-1.62-1.97-.24-.31-.48-.63-.72-.94.72.57,1.4,1.19,2.04,1.83,1.38,1.37,2.62,2.88,3.78,4.44.62.83,1.21,1.68,1.77,2.55.07.12.22.11.3,0,1.2-1.67,1.28-3.85,2.08-5.7,1.31.57,1.71,2.07,1.8,3.39.1,1.67-.18,3.35-.49,4.98-.14.72-.3,1.45-.42,2.17-.02.14.12.28.26.2,1.2-.73,2.27-1.65,3.22-2.68-.19.49-.4.98-.62,1.46-.08.17.16.33.29.18.8-.91,1.51-1.89,2.13-2.94.41-.7.77-1.44,1.04-2.22.12,5.6-1.25,11.31-4.36,15.99-2.02,3.01-4.7,5.46-7.77,7.42-.17.12-.05.36.15.31Z"/>
        <path class="cls-8" d="M132.69,158.61c3.07-1.97,5.75-4.41,7.77-7.42,3.11-4.68,4.47-10.39,4.36-15.99-.26.78-.63,1.52-1.04,2.22-.62,1.05-1.33,2.02-2.13,2.94-.13.15-.37-.01-.29-.18.23-.48.43-.97.62-1.46-.71.76-1.48,1.47-2.33,2.08-.23.67-.47,1.34-.76,1.99-.64,1.48-1.43,2.91-2.45,4.15,1.14-.54,2.18-1.28,3.21-2.01.14-.1.35.1.24.24-1.45,1.88-2.73,3.96-4.61,5.45-.87.69-1.88,1.26-2.96,1.56-1.09.3-2.21.22-3.28-.12-1.11-.35-2.13-.92-3.2-1.38-.91-.39-1.87-.69-2.83-.93-.96-.24-1.97-.42-2.99-.5,0,0,0,0,0,0-.58.4-1.18.76-1.79,1.1-.02,0-.03.02-.05.03-.19.1-.38.21-.57.3-.01,0-.02.01-.04.02-.4.2-.8.39-1.2.57-.05.02-.1.04-.15.06-.15.06-.3.13-.45.19-.05.02-.11.04-.16.07-.19.08-.39.15-.59.23-.14.05-.27.09-.41.14,1.36-.06,2.74.02,4.1.25,2.79.43,5.59,1.49,7.58,3.58,2.03,2.02,2.88,5.24,1.73,7.92,3.66-1.35,7.12-3.26,10-5.91.73-.67,1.44-1.37,2.09-2.12-.95.62-1.96,1.14-2.98,1.62-1.4.64-2.83,1.19-4.31,1.65-.19.05-.31-.2-.15-.31Z"/>
        <path class="cls-25" d="M46.9,154.68c-3.73.29-7.65,1.44-9.77,4.72-1.47,2.35-1.66,5.74-.2,8.14-.73.14-1.48.2-2.22.21-.26,0-.51,0-.77,0-.02-.17-.07-.32-.13-.45-.27-.44-.54-1.02-.75-1.5-.08-.21-.25-.73-.32-.94-.08-.31-.15-.66-.22-.97-.33-2.1.16-4.33,1.42-6.05.07-.08-.06-.2-.13-.12-1.29,1.39-1.98,3.29-1.98,5.19-.01.34.05.72.07,1.07.07.34.13.72.21,1.05.08.23.25.8.33,1.02.09.22.34.75.44.98.13.23.25.48.42.7-1.7-.13-3.49-.56-4.99-1.36-.53-.75-.83-1.66-1.02-2.55-.86-3.87.74-6.63,4.11-8.56.1-.05.03-.2-.07-.16-1.71.66-3.23,1.84-4.17,3.43-.3.54-.55,1.14-.67,1.75-.32,1.83-.14,3.8.81,5.42.01.03.04.05.05.08-1.49-1.06-2.55-2.58-2.68-4.65-.24-3.6,2.68-6.84,6.02-7.84,5.23-1.4,10.89-1.52,16.17-.26.03.97.05,1.55.06,1.67Z"/>
        <path class="cls-9" d="M26.37,160.98c-.56-.59-1.09-1.23-1.52-1.93,0,0,0,0,0,0-.17.66-.25,1.35-.2,2.05.13,2.07,1.19,3.59,2.68,4.65-.02-.02-.04-.05-.05-.08-.83-1.41-1.07-3.08-.91-4.7Z"/>
        <path class="cls-9" d="M32.43,166.04c-.08-.22-.25-.79-.33-1.02-.08-.34-.14-.71-.21-1.05-.01-.21-.04-.44-.05-.66-1.68.54-3.48-.48-4.78-1.65-.01.67.06,1.39.22,2.14.19.9.49,1.8,1.02,2.55,1.5.8,3.29,1.23,4.99,1.36-.17-.21-.29-.46-.42-.7-.1-.22-.35-.76-.44-.98Z"/>
        <path class="cls-9" d="M46.84,153.01c-2.41-.58-4.91-.87-7.41-.87.48.9.49,1.99.13,2.93-.43,1.12-1.32,1.94-2.22,2.68-.45.37-.94.73-1.34,1.16-.39.42-.72.89-1.05,1.36-.67.95-1.33,1.99-2.31,2.64-.08.05-.15.09-.23.13.01.28.04.56.08.83.07.31.14.66.22.97.08.22.24.73.32.94.21.48.48,1.05.75,1.5.06.14.11.29.13.45.26.01.52.01.77,0,.74-.01,1.49-.07,2.22-.21-1.46-2.4-1.27-5.79.2-8.14,2.12-3.28,6.04-4.43,9.77-4.72,0-.12-.02-.7-.06-1.67Z"/>
        <path class="cls-13" d="M46.83,152.65c-.43-.11-.86-.22-1.3-.31-.29-1.07-.75-2.03-1.22-2.97-.48-.97-.91-1.97-1.29-2.98-1.98-5.11-2.83-11.62,1.28-15.92.37-.37.77-.77,1.19-1.1,0,0,.2-.16.38-.3.45,9.16.82,19.33.97,23.59Z"/>
        <path class="cls-1" d="M45.86,129.06c-.18.15-.38.3-.38.3-.4.32-.79.7-1.15,1.06.11.3.2.6.29.9.3,1.08.41,2.17.52,3.28.14,1.5.26,3,.31,4.51.05,1.55.03,3.1-.11,4.65-.07.73-.17,1.47-.3,2.19-.11.58-.24,1.17-.48,1.71-.14.34-.34.66-.61.91.12.26.24.53.36.79.48.95.93,1.9,1.22,2.97.43.09.87.2,1.3.31-.15-4.26-.51-14.43-.97-23.59Z"/>
        <path class="cls-13" d="M127.45,161.67c-.14,1.28-.72,2.45-1.57,3.39.18-.68.26-1.39.28-2.1.21-3.92-2.57-7.36-6.26-8.43-.22-.1-.37.22-.15.31,2.69,1.11,5.01,3.42,5.45,6.37.3,1.58-.03,3.09-.21,4.68-.18.14-.36.27-.54.39-1.13.76-2.42,1.22-3.75,1.54.44-.93.57-1.99.73-3,.39-2.86-.19-6.34-2.81-8.01-.2-.12-.37.18-.18.3,2.76,2.4,2.48,6.59,1.61,9.82-.03.1-.15.63-.19,1.07-1,.2-2.02.34-3.01.48-3.99.5-8.11.34-12-.7-1.27-.35-2.58-.74-3.6-1.54-.05-.04-.11-.07-.18-.06-1.42.15-2.95.4-4.38.27.02-.04.04-.08.06-.12.84-1.89.48-4.08-.4-5.87-.61-1.24-1.47-2.36-2.5-3.28-2.79-4.72-2.66-11.61-2.53-16.93.01-.12-.18-.13-.19-.02-.19,1.51-.28,3.02-.32,4.54-.03,2.96.03,8.23,1.69,11.38-.88-.56-1.84-.99-2.85-1.25.11-.62.22-1.25.27-1.88.18-2.06.09-4.36-.01-6.43-.47-8.54-1.55-17.03-2.88-25.47,0-.05-.06-.09-.1-.08-.05,0-.09.06-.08.11.36,2.82.67,5.65.98,8.48.81,7.75,1.59,15.57,1.48,23.37,0,.61-.03,1.21-.04,1.82-.38-.08-.76-.14-1.15-.17-3.39-.27-6.9-.33-10.18.73-1.63.51-3.16,1.34-4.5,2.4.7-.49,1.42-.93,2.19-1.3,3.86-1.85,8.28-1.75,12.44-1.3,3.3.35,6.23,2.64,7.64,5.59.94,1.95,1.17,4.5-.32,6.21-1.53,2.1-4.38,2.46-6.74,1.74.98-1.39,1.26-3.26,1.03-4.94-.15-1.18-.44-2.32-.9-3.41-.03-.08-.13-.13-.22-.1-.09.03-.14.14-.11.23,1.21,3.64,1.26,8.56-3.28,9.63-6.35,1.51-9.52-1.98-8.85-8.24.01-.09-.05-.19-.14-.2s-.19.04-.2.14c-.22,1.17-.25,2.34-.12,3.53.11,1.18.53,2.37,1.23,3.36-.85-.06-1.64.06-2.44.11-.83.03-1.66-.02-2.43-.24-2.65-.65-3.49-3.2-3.59-5.67-.13-2.53.68-5.08,2.12-7.16.66-2.46.87-5.03,1.03-7.55.37-7.53-.2-15.09-1.09-22.57,0-.05-.05-.08-.09-.07-.05,0-.08.05-.07.09.3,2.49.53,4.99.71,7.49.34,4.74.52,9.5.28,14.25-1.37-1.18-2.76-2.29-4.07-3.54-5.98-5.47-10.91-12.6-12.21-20.74,0-.06-.09-.05-.09,0,.12,2.55.79,5.06,1.71,7.45,1.33,3.42,3.25,6.59,5.61,9.4.19.63.36,1.34.51,1.96.64,2.83,1.13,5.68,1.65,8.53.59,4.15,2.86,13.3.13,16.55-1.26,1.36-3.21,1.59-4.98,1.81-5.25.91-6.07-2.36-4.94-6.72.07-.21-.25-.33-.33-.12-.81,2.01-1.14,4.89.23,6.54-.64.37-1.33.68-2.02.93-2.77,1.01-6.25.73-8.4-1.41-2.11-2.37-1.26-5.92-.18-8.61.04-.08,0-.19-.07-.23-.08-.05-.19-.01-.24.07-.45.81-.78,1.67-1.05,2.55-.27.88-.43,1.81-.45,2.75-.07,1.58.51,3.25,1.66,4.36-.61.31-1.27.45-1.96.42-1.61-.07-3.41-.74-4.28-2.17-1.33-2.21-1.29-5.18.05-7.38,2.22-3.49,6.65-4.47,10.53-4.68,4.86-.3,10.31.47,13.97,3.97-3.47-3.69-9.13-4.7-13.99-4.5-.34.01-.69.03-1.04.05-.03-.97-.76-22.81-1.56-35.03-.42-6.41.45-9.88,1.26-11.65.57-1.26,1.19-1.86,1.55-2.13.41,1.27,1.27,2.43,2.1,3.42,1.82,2.1,4.38,3.69,7.17,4,1.77,3.15,5.49,3.72,8.59,2.22.96-.49,1.83-1.18,2.33-2.16,2.46-.12,4.89-.56,7.23-1.3,2.96-.91,5.8-2.33,8.18-4.35,1.44-1.28,3.53-3.39,4.32-5.56,2.11,1.66,4.15,3.44,6.09,5.31,3.98,3.84,7.69,8.06,10.42,12.88.66,1.21,1.29,2.44,1.77,3.72.44,1.12.74,2.25,1.19,3.38-.84-.26-1.7-.47-2.55-.65-5.57-1.24-11.79.38-14.26,5.95-.09.23.26.35.33.13.81-1.75,2.23-3.25,3.88-4.26,4.29-2.57,9.72-1.71,14.13.12.36.2.93.46,1.26.71,5.74,3.72,4.72,11.67,3.08,17.37-.53,1.85-1.13,3.68-1.8,5.49-4.64.91-8.83,3.61-10.97,8.09-.1.22.23.36.32.14,2.51-4.83,7.9-7.72,13.28-7.74,4.02-.06,8.4.8,11.18,3.87,1.2,1.37,1.92,3.21,1.7,5.04Z"/>
        <path class="cls-4" d="M45.83,121.96c.16-.16.34-.31.51-.45,1.51-1.22,3.39-1.97,5.32-2.18,2.86-.3,5.67.38,8.47.84,2.17.36,4.36.51,6.55.4,2.13-.1,4.25-.43,6.31-.99,2.05-.56,4.03-1.34,5.87-2.4,1.81-1.04,3.47-2.34,4.86-3.91,1.25-1.42,2.21-3.05,3-4.76.87-1.89,1.58-3.88,2.02-5.92.01-.06.02-.12.04-.18-.12-.1-.25-.2-.37-.3-.79,2.16-2.88,4.27-4.32,5.56-2.38,2.02-5.22,3.44-8.18,4.35-2.34.74-4.78,1.19-7.23,1.3-.5.97-1.38,1.67-2.33,2.16-3.1,1.5-6.82.93-8.59-2.22-2.79-.3-5.34-1.9-7.17-4-.84-.98-1.69-2.15-2.1-3.42-.36.27-.98.87-1.55,2.13-.81,1.77-1.69,5.24-1.26,11.65.05.75.1,1.53.15,2.34Z"/>
        <path class="cls-4" d="M47.64,113.44c.86-.43,1.81-.64,2.77-.63,2.09.02,3.99.95,5.73,2.02,1.92,1.17,3.82,2.51,6.01,3.12,2.34.64,4.86.31,7.16-.32,2.42-.67,4.73-1.75,6.85-3.08,1.03-.65,2.03-1.36,2.97-2.14.97-.8,1.87-1.69,2.72-2.61.35-.38.69-.77,1.02-1.17-2.1,1.52-4.48,2.64-6.95,3.4-2.34.74-4.78,1.19-7.23,1.3-.5.97-1.38,1.67-2.33,2.16-3.1,1.5-6.82.93-8.59-2.22-2.79-.3-5.34-1.9-7.17-4-.84-.98-1.69-2.15-2.1-3.42-.36.27-.98.87-1.55,2.13-.59,1.3-1.22,3.51-1.35,7.12.57-.67,1.25-1.26,2.04-1.65Z"/>
        <path class="cls-16" d="M103.05,127.18c2.12.64,4.14,1.63,5.86,3.03,1.73,1.41,3.08,3.24,3.86,5.34.05.14-.14.28-.26.2-.5-.34-1.1-.54-1.7-.66-.52-.11-1.07-.16-1.6-.06.84.86,1.69,1.71,2.46,2.64.7.84,1.32,1.75,1.77,2.74.5,1.1.8,2.26.89,3.46.02.2.02.39.02.59,1.2-5.38,1.33-11.81-3.67-15.05-.33-.25-.9-.51-1.26-.71-2.19-.91-4.63-1.58-7.06-1.71.23.06.47.12.7.19Z"/>
        <path class="cls-16" d="M104.06,126.53c.43.06.86.14,1.28.23.85.18,1.71.38,2.55.65-.05-.12-.09-.24-.13-.36-.88-.21-1.77-.37-2.67-.45-.34-.03-.69-.05-1.03-.06Z"/>
        <path class="cls-1" d="M75.54,165.57c-1.98-1.27-2.87-3.73-3.28-5.94-.44-2.35-.34-4.76-.07-7.13.28-2.45.73-4.87,1.03-7.32.28-2.36.42-4.77.01-7.13-.29-1.66-.89-3.23-1.74-4.66.39,4.93.55,9.88.31,14.81-.16,2.53-.37,5.09-1.03,7.55-1.44,2.08-2.24,4.63-2.12,7.16.1,2.47.94,5.01,3.59,5.67.77.22,1.61.27,2.43.24.8-.05,1.59-.17,2.44-.11-.61-.87-1.01-1.89-1.17-2.93-.13-.07-.26-.14-.39-.22Z"/>
        <path class="cls-1" d="M62.48,139.98c-2.19-2.62-3.99-5.54-5.31-8.68.14,3.33.77,6.63,1.79,9.8.54,1.68,1.19,3.3,2,4.86.81,1.56,1.74,3.07,2.63,4.58.51.85,1,1.72,1.47,2.59-.18-1.01-.34-1.91-.44-2.66-.52-2.85-1.01-5.7-1.65-8.53-.14-.62-.31-1.33-.51-1.96Z"/>
        <path class="cls-25" d="M88.08,155.18c-4.16-.44-8.58-.55-12.44,1.3-.76.37-1.49.81-2.19,1.3,1.34-1.06,2.86-1.89,4.5-2.4,3.28-1.06,6.79-1,10.18-.73.39.03.77.09,1.15.17,0-.56.03-1.12.04-1.68-1.05-.14-2.1-.44-3.12-.66-1.99-.44-4.06-.72-6.08-.35-1.42.25-2.69.9-4.04,1.38-1.45.52-3.39,1.07-4.96.67-.1.53-.22,1.06-.36,1.59-1.44,2.08-2.24,4.63-2.12,7.16.1,2.47.94,5.01,3.59,5.67.77.22,1.61.27,2.43.24.8-.05,1.59-.17,2.44-.11-.7-.99-1.12-2.18-1.23-3.36-.14-1.18-.1-2.36.12-3.53.02-.1.11-.16.2-.14s.15.11.14.2c-.67,6.26,2.5,9.75,8.85,8.24,4.54-1.06,4.5-5.99,3.28-9.63-.03-.09.01-.2.11-.23.09-.03.18.02.22.1.46,1.1.75,2.24.9,3.41.23,1.68-.05,3.55-1.03,4.94,2.36.73,5.21.36,6.74-1.74,1.49-1.71,1.26-4.27.32-6.21-1.4-2.95-4.34-5.25-7.64-5.59Z"/>
        <path class="cls-9" d="M89.14,163.88c-.24-.51-.39-1.06-.45-1.63-.46.99-.93,1.98-1.54,2.88-1.26,1.85-3.23,3.05-5.48,3.17-1.74.09-3.76-.39-4.96-1.72,1.07,3.17,3.97,4.62,8.48,3.55,3.22-.75,4.13-3.45,3.96-6.24Z"/>
        <path class="cls-9" d="M95.4,165.77c-1.44.62-3.16.7-4.56-.06-.43-.23-.78-.53-1.08-.88.01,1.37-.32,2.78-1.1,3.89,2.36.73,5.21.36,6.74-1.74.44-.51.73-1.09.89-1.7-.28.19-.58.35-.89.48Z"/>
        <path class="cls-1" d="M125.75,156.63c-2.77-3.07-7.16-3.93-11.18-3.87-5.38.02-10.77,2.91-13.28,7.74-.09.22-.42.08-.32-.14,2.15-4.48,6.33-7.19,10.97-8.09.67-1.81,1.27-3.64,1.8-5.49.27-.92.51-1.91.72-2.92-1.2,1.61-2.82,2.91-4.6,3.81-2.25,1.14-4.79,1.71-7.31,1.65-2.44-.06-4.9-.71-6.94-2.06-2.05-1.35-3.53-3.36-4.3-5.67-.1,5.1,0,11.26,2.56,15.6,1.03.92,1.89,2.04,2.5,3.28.88,1.8,1.24,3.98.4,5.87-.02.04-.04.08-.06.12,1.43.14,2.96-.12,4.38-.27.07,0,.13.02.18.06,1.02.8,2.32,1.19,3.6,1.54,3.89,1.04,8.01,1.19,12,.7.99-.15,2.01-.29,3.01-.48.03-.45.15-.97.19-1.07.86-3.23,1.15-7.42-1.61-9.82-.19-.12-.02-.41.18-.3,2.61,1.67,3.2,5.14,2.81,8.01-.16,1.01-.29,2.08-.73,3,1.33-.32,2.62-.77,3.75-1.54.19-.12.37-.25.54-.39.18-1.59.5-3.1.21-4.68-.43-2.95-2.76-5.26-5.45-6.37-.22-.1-.07-.41.15-.31,3.69,1.07,6.47,4.51,6.26,8.43-.01.71-.09,1.42-.28,2.1.85-.95,1.44-2.11,1.57-3.39.23-1.83-.5-3.66-1.7-5.04Z"/>
        <path class="cls-16" d="M90.72,110.79c2.17,1.58,4.27,3.25,6.29,5.01,2.06,1.79,4.03,3.68,5.91,5.66.98,1.03,1.95,2.07,2.86,3.17.73.87,1.41,1.78,2.08,2.7-.43-1.1-.73-2.21-1.16-3.29-.49-1.28-1.11-2.52-1.77-3.72-2.73-4.82-6.44-9.04-10.42-12.88-1.94-1.87-3.98-3.65-6.09-5.31-.64,1.76-2.15,3.49-3.47,4.77,1.96,1.25,3.89,2.54,5.77,3.91Z"/>
        <path class="cls-1" d="M59.92,157.18c-1.22-1.66-2.68-3.13-4.13-4.58-1.46-1.46-2.93-2.92-4.19-4.57-1.34-1.77-2.35-3.77-3.16-5.82-.83-2.09-1.44-4.24-1.91-6.43.41,9.48.7,18.26.72,18.87.35-.02.69-.04,1.04-.05,3.88-.16,8.26.46,11.64,2.58Z"/>
        <path class="cls-1" d="M67.72,134.8c-1.11-.92-2.25-1.81-3.44-2.63-2.24-1.55-4.77-3-7.51-3.39,2.2,5.79,6.14,10.92,10.68,15.08,1.31,1.25,2.7,2.36,4.07,3.54.16-3.16.13-6.32,0-9.48-.21-.16-.43-.32-.64-.48-1.08-.85-2.11-1.76-3.17-2.64Z"/>
        <path class="cls-25" d="M64.79,153.71c-.62.29-1.3.43-1.99.46-1.53.07-3.07-.31-4.53-.72-1.65-.46-3.27-1.03-4.93-1.46-1.47-.38-3.03-.71-4.56-.51-.59.08-1.14.26-1.63.52.05,1.51.08,2.48.09,2.66.35-.02.69-.04,1.04-.05,4.86-.2,10.53.81,13.99,4.5-3.66-3.5-9.1-4.27-13.97-3.97-3.88.21-8.31,1.19-10.53,4.68-1.34,2.2-1.38,5.17-.05,7.38.88,1.42,2.67,2.1,4.28,2.17.69.03,1.36-.1,1.96-.42-1.15-1.11-1.73-2.78-1.66-4.36.02-.94.18-1.87.45-2.75.27-.89.6-1.74,1.05-2.55.05-.08.15-.12.24-.07.08.05.11.15.07.23-1.07,2.69-1.92,6.25.18,8.61,2.15,2.15,5.63,2.43,8.4,1.41.69-.25,1.38-.56,2.02-.93-1.37-1.66-1.04-4.53-.23-6.54.08-.21.4-.09.33.12-1.13,4.36-.31,7.63,4.94,6.72,1.77-.22,3.72-.45,4.98-1.81,2.18-2.58,1.18-8.93.38-13.49-.12.07-.24.13-.35.18Z"/>
        <path class="cls-25" d="M125.75,156.63c-2.77-3.07-7.16-3.93-11.18-3.87-5.38.02-10.77,2.91-13.28,7.74-.09.22-.42.08-.32-.14,2.15-4.48,6.33-7.19,10.97-8.09.22-.59.43-1.19.64-1.79-.67.07-1.34.05-2.02.02-1.02-.05-2.04-.11-3.05-.09-1,.02-2.01.13-2.97.43-1.01.32-1.93.85-2.69,1.58-.68.65-1.27,1.39-2,1.99-.61.51-1.3.83-2.09.89-.99.07-1.87-.25-2.8-.54-.73-.23-1.56-.43-2.25-.12.32.9.7,1.76,1.17,2.56,1.03.92,1.89,2.04,2.5,3.28.88,1.8,1.24,3.98.4,5.87-.02.04-.04.08-.06.12,1.43.14,2.96-.12,4.38-.27.07,0,.13.02.18.06,1.02.8,2.32,1.19,3.6,1.54,3.89,1.04,8.01,1.19,12,.7.99-.15,2.01-.29,3.01-.48.03-.45.15-.97.19-1.07.86-3.23,1.15-7.42-1.61-9.82-.19-.12-.02-.41.18-.3,2.61,1.67,3.2,5.14,2.81,8.01-.16,1.01-.29,2.08-.73,3,1.33-.32,2.62-.77,3.75-1.54.19-.12.37-.25.54-.39.18-1.59.5-3.1.21-4.68-.43-2.95-2.76-5.26-5.45-6.37-.22-.1-.07-.41.15-.31,3.69,1.07,6.47,4.51,6.26,8.43-.01.71-.09,1.42-.28,2.1.85-.95,1.44-2.11,1.57-3.39.23-1.83-.5-3.66-1.7-5.04Z"/>
        <path class="cls-9" d="M118.7,165.84c-1.64.14-3.29.21-4.94.2-3.48-.02-7.1-.36-10.34-1.7-.74-.31-1.47-.67-2.15-1.11-.56-.36-1.11-.75-1.51-1.28-.72-.95-1.01-2.18-1.27-3.32-.25-1.12-.45-2.29-.9-3.35-.92.03-1.76-.27-2.63-.55-.73-.23-1.56-.43-2.25-.12.32.9.7,1.76,1.17,2.56,1.03.92,1.89,2.04,2.5,3.28.88,1.8,1.24,3.98.4,5.87-.02.04-.04.08-.06.12,1.43.14,2.96-.12,4.38-.27.07,0,.13.02.18.06,1.02.8,2.32,1.19,3.6,1.54,3.89,1.04,8.01,1.19,12,.7.99-.15,2.01-.29,3.01-.48.03-.45.15-.97.19-1.07.11-.41.21-.84.3-1.28-.55.09-1.1.16-1.65.2Z"/>
        <path class="cls-9" d="M126.14,163.14c-.02.65-.1,1.3-.27,1.92.77-.86,1.32-1.9,1.52-3.04-.4.39-.81.77-1.25,1.12Z"/>
        <path class="cls-9" d="M123.65,164.68c-.76.34-1.53.59-2.33.77-.13.81-.28,1.63-.63,2.37,1.33-.32,2.62-.77,3.75-1.54.19-.12.37-.25.54-.39.08-.71.19-1.41.26-2.1-.5.33-1.03.63-1.59.88Z"/>
        <path class="cls-17" d="M86.25,104.62c-2.65,3.37-6.41,5.67-10.45,7-2.32.77-4.73,1.32-7.17,1.49-.69.8-1.48,1.47-2.49,1.87-3.14,1.23-6.11.78-8.27-1.94-2.65-.63-4.96-2.22-6.7-4.27-1.55-1.82-3.08-4.24-1.85-6.54.01,1.22.26,3.03,1.4,4.72,1.35,2,3.59,3.32,6.67,3.92.09.02,3.01.85,6.55.85,1.35,0,2.79-.12,4.2-.45.16-.02,13.22-1.78,17.92-10.25.59-1.06.68-2.34.28-3.51.91.48,1.66,1.31,1.81,2.3.24,1.73-.85,3.44-1.88,4.8Z"/>
        <path class="cls-2" d="M68.64,113.12c.3-.48.81-.82,1.33-1.06.78-.35,1.63-.57,2.46-.78,1.17-.29,2.33-.59,3.48-.96,1.07-.34,2.12-.73,3.09-1.3,1.82-1.05,3.35-2.54,4.7-4.14.61-.72,1.23-1.47,1.72-2.28.33-.55.57-1.15.74-1.77-.03.07-.07.15-.1.21-4.7,8.46-17.76,10.23-17.92,10.25-1.41.33-2.85.45-4.2.45-3.54,0-6.46-.83-6.55-.85-3.08-.6-5.32-1.92-6.67-3.92-1.14-1.69-1.39-3.5-1.4-4.72-1.22,2.3.31,4.71,1.85,6.54,1.75,2.05,4.06,3.64,6.7,4.27,2.16,2.71,5.13,3.16,8.27,1.94,1.01-.4,1.8-1.06,2.49-1.87,0,0,0,0,.01,0Z"/>
        <path class="cls-1" d="M80.15,96.24c-9.22,4.36-18.87,4.33-22.93,4.06,2.14-.34,4.83-.71,6.7-1.05,5.39-.99,10.83-1.92,16.23-3.01Z"/>
        <path class="cls-17" d="M84.42,95.34c-1.55,1.78-8.45,5.43-18.35,7.02-8.58,1.38-12.98-.49-14.48-1.37,1.38-.15,2.8-.3,4.14-.46.79.08,2.41.22,4.59.22,5.15,0,13.41-.76,21.18-4.78.98-.2,1.95-.41,2.93-.63Z"/>
        <path class="cls-26" d="M85.74,100.87c-4.62,8.31-17.53,10.05-17.66,10.07,0,0,0,0,0,0h-.01c-5.05,1.19-10.54-.38-10.6-.4h0s0,0,0,0c-2.99-.58-5.16-1.85-6.45-3.77-1.48-2.2-1.38-4.67-1.28-5.57.19-.02.37-.03.52-.06.26-.03.52-.06.78-.08,1.08.76,5.46,3.2,15.1,1.65,10.43-1.68,17.6-5.53,18.8-7.46l.92,2.01c.54,1.18.5,2.53-.1,3.61Z"/>
        <path class="cls-7" d="M72.35,108.86c.93-1.49,1.88-3,3.19-4.2,1.35-1.23,2.96-2.1,4.57-2.91,1.65-.83,3.33-1.63,4.81-2.76.41-.31.8-.66,1.17-1.01-.06-.25-.14-.49-.25-.72l-.92-2.01c-1.2,1.93-8.37,5.78-18.8,7.46-9.65,1.55-14.02-.89-15.1-1.65-.26.03-.53.06-.78.08-.15.02-.33.04-.52.06-.1.9-.2,3.37,1.28,5.57,1.29,1.92,3.46,3.2,6.45,3.77,0,0,0,0,0,0h0c.06.02,5.54,1.58,10.6.4h.01s0,0,0,0c.04,0,1.4-.19,3.37-.71.31-.45.61-.91.9-1.37Z"/>
        <path class="cls-9" d="M39.88,166.47c-.91-.36-1.59-1.14-2.06-1.98-.45-.79-.74-1.68-.88-2.58-.4,1.78-.15,3.72.79,5.28.88,1.42,2.67,2.1,4.28,2.17.69.03,1.36-.1,1.96-.42-.79-.77-1.31-1.79-1.53-2.88-.76.51-1.67.75-2.57.4Z"/>
        <path class="cls-9" d="M52.55,166.47c-1.58.94-3.48,1.41-5.31,1.32-1.42-.07-2.84-.52-3.9-1.45.21.61.52,1.19.98,1.71,2.15,2.15,5.63,2.43,8.4,1.41.69-.25,1.38-.56,2.02-.93-.66-.8-.92-1.89-.93-3.03-.38.37-.8.69-1.26.96Z"/>
        <path class="cls-9" d="M65.57,164c-.53.69-1.15,1.31-1.85,1.85-.45.34-.91.59-1.43.79-1.04.41-2.15.67-3.27.75-1.05.08-2.2.02-3.15-.47-.83-.43-1.31-1.18-1.46-2.06-.09,2.86,1.32,4.66,5.38,3.96,1.77-.22,3.72-.45,4.98-1.81.72-.86,1.09-2.14,1.24-3.62-.14.21-.28.41-.43.6Z"/>
        <path class="cls-9" d="M75.54,165.57c-1.98-1.27-2.87-3.73-3.28-5.94-.33-1.76-.35-3.55-.23-5.33-.31-.02-.61-.06-.9-.13h0c-.05.26-.1.52-.16.78-.06.27-.13.54-.2.81-1.44,2.08-2.24,4.63-2.12,7.16.1,2.47.94,5.01,3.59,5.67.77.22,1.61.27,2.43.24.8-.05,1.59-.17,2.44-.11-.08-.12-.16-.24-.23-.36-.02-.04-.05-.08-.07-.12-.05-.08-.1-.16-.14-.25-.03-.05-.05-.1-.08-.15-.04-.08-.08-.15-.11-.23-.03-.06-.05-.11-.07-.17-.03-.08-.06-.15-.09-.23-.02-.06-.04-.12-.06-.18-.03-.08-.05-.15-.08-.23-.02-.06-.04-.12-.05-.18-.02-.08-.04-.16-.06-.24-.01-.06-.03-.11-.04-.17-.02-.1-.04-.19-.06-.29,0-.04-.02-.08-.02-.12h0c-.13-.07-.26-.14-.39-.22Z"/>
        <path class="cls-8" d="M137.2,157.29c-.66.42-1.37.8-2.13,1.02-.29.08-.59.14-.9.17-.44.16-.88.31-1.33.45-.19.05-.31-.2-.15-.31.1-.06.19-.13.29-.19-.3.2-1.23-.69-1.4-.88-.39-.43-.62-.94-.94-1.42-2.16-3.31-6.37-4.51-10.07-5.12-.86-.14-2.07-.47-2.94-.31-.85.16-1.78.81-2.6,1.11-.14.05-.27.09-.41.14,1.36-.06,2.74.02,4.1.25,2.79.43,5.59,1.49,7.58,3.58,2.03,2.02,2.88,5.24,1.73,7.92,3.66-1.35,7.12-3.26,10-5.91.73-.67,1.44-1.37,2.09-2.12-.87.56-1.78,1.05-2.71,1.49-.07.05-.14.1-.22.14Z"/>
        <path class="cls-8" d="M130.64,133.57c.79.18,1.28.97,1.64,1.64.09.18.18.36.26.54-.34-1.48-.68-2.97-1.27-4.37-.78-1.87-2.14-3.38-3.4-4.93-1.26-1.54-2.53-3.08-3.69-4.7-.2-.29-.4-.58-.6-.87,1.06,2.35,2.52,4.62,4.06,6.66.24.32.48.64.72.94.63.57,1.18,1.24,1.62,1.97.12.18-.15.37-.28.21-.55-.63-1.06-1.27-1.57-1.92-.58-.52-1.23-.97-1.94-1.32-.2-.1-.41-.19-.61-.28.44.38.86.79,1.25,1.24,3.04,3.4,4.12,8.14,3.99,12.62-.02.89-.09,1.78-.25,2.66.02.24.05.48.08.73.22-.57.38-1.17.49-1.77.29-1.51.33-3.06.19-4.59-.13-1.44-.42-2.88-.93-4.24-.05-.13.1-.24.22-.22Z"/>
        <path class="cls-21" d="M69.06,107.81c0,3.41-2.77,6.18-6.18,6.18s-6.18-2.77-6.18-6.18,2.77-6.18,6.18-6.18,6.18,2.77,6.18,6.18Z"/>
        <path class="cls-27" d="M67.03,107.81c0,2.29-1.86,4.15-4.15,4.15s-4.15-1.86-4.15-4.15,1.86-4.15,4.15-4.15,4.15,1.86,4.15,4.15Z"/>
        <path class="cls-20" d="M67.37,103.58c.1.49.12,1,.06,1.45-.16,1.16-.66,2.3-1.42,3.19-.75.89-1.77,1.51-2.85,1.9-1.42.51-3,.64-4.46.2-.57-.17-1.12-.43-1.61-.76-.06-.04-.12-.08-.18-.12.71,2.63,3.11,4.56,5.96,4.56,3.41,0,6.18-2.77,6.18-6.18,0-1.64-.64-3.13-1.69-4.23Z"/>
        <path class="cls-3" d="M57.96,110.23c.33-.96.87-1.87,1.6-2.58.76-.76,1.75-1.17,2.71-1.6,1.03-.46,2.08-.91,2.98-1.59.45-.34.85-.75,1.2-1.19.07-.1.15-.2.23-.32-1.05-.82-2.37-1.31-3.8-1.31-3.41,0-6.18,2.77-6.18,6.18,0,1.25.37,2.41,1.01,3.38.06-.33.14-.66.25-.97Z"/>
        <path class="cls-28" d="M69.32,107.81c.05,5.8-6.94,8.7-11.02,4.58-2.46-2.44-2.41-6.7.1-9.06,3.99-3.91,10.83-1.13,10.92,4.48h0ZM68.8,107.81c.07-5.37-6.39-8.08-10.18-4.26-2.29,2.24-2.24,6.25.1,8.42,3.68,3.62,10.02,1,10.08-4.16h0Z"/>
        <path class="cls-28" d="M67.29,107.81c.07,4-4.77,6.02-7.57,3.15-1.67-1.67-1.61-4.61.11-6.19,2.65-2.63,7.41-.72,7.45,3.04h0ZM66.76,107.81c.08-3.58-4.2-5.4-6.71-2.83-1.5,1.5-1.44,4.13.11,5.55,2.37,2.34,6.56.62,6.6-2.72h0Z"/>
        <path class="cls-22" d="M43,48.1c-1.3-.69-2.58-1.51-3.94-1.91-4.39-1.58-8.26,1.37-10.79,4.75,1.72-4.33,6.48-7.76,11.13-5.64,1.42.63,2.65,1.58,3.61,2.74.02.02.01.05,0,.06Z"/>
        <path class="cls-22" d="M87.41,47.54c-2.54-3.38-6.4-6.33-10.79-4.75-1.34.43-2.61,1.13-3.89,1.91-.02.01-.05,0-.07-.01.87-1.2,2.21-2.14,3.62-2.79,4.65-2.12,9.41,1.32,11.13,5.64Z"/>
        <path class="cls-22" d="M119.87,65.82c0-.06-.08-.07-.09-.01-1.32,3.32-4.91,4.6-8.21,5.11,1.02-1.05,1.81-2.34,2.27-3.69.39-1.06.65-2.2.4-3.34,0-.04-.07-.04-.08,0-2.53,2.69-5.01,2.78-8.06,1.15.59-2.21.91-4.52.87-6.81,5.5-2.57,9.64-7.49,12.36-12.84,3.98-8,5.95-18.67,2.45-27.16-1.65-3.3-3.32-6.68-4.34-10.24-.76-2.57-1.37-5.25-1.31-7.94h0s-.03-.07-.06-.05c-.08.04-.17.08-.25.12-12.97,2.96-27.02,12.63-34.77,23.51-2.53-1.57-5.32-2.75-8.11-3.74-.7-1.16-1.36-2.34-1.98-3.55-1.53-3.24-3.43-6.52-6.45-8.58-.76-.49-1.61-.91-2.52-1-.05-.01-.08.07-.03.09,1.19.76,1.98,2.01,2.38,3.35.13.39.22.79.32,1.19-2.49-3.13-6.99-3.87-10.64-2.5-3.71,1.34-6.81,3.97-9.11,7.11-.03.04.01.1.06.07,1.1-.53,2.31-.75,3.53-.81-1.37.54-2.65,1.27-3.8,2.22-2.37,1.9-3.8,4.61-4.57,7.5-.23.1-.46.21-.68.33-1.09-1.2-2.27-2.31-3.49-3.37-1.34-1.16-2.74-2.26-4.18-3.29C23.12,12.53,12.51,8.38,1.81,9.32c-.01,0-.03.01-.03.02,0,0,0,.01,0,.01,0,0,0,.01,0,.03,0,0,0,0,0,.01,1.17,2.3,1.85,4.83,1.77,7.36-.22,3.78-1.49,7.6-2.22,11.33C.63,31.58.13,35.18,0,38.75c-.31,10.45,7.94,20.55,17.12,24.91.14,3.26.83,6.47,2.14,9.45-.85.76-1.82,1.43-2.95,1.67-.4.1-.82.09-1.25.09-.02.01-.03.04-.02.06.29.63.7,1.19,1.2,1.69.69.7,1.58,1.25,2.53,1.59-2.18,1.32-4.58,1.44-6.87.22-.03,0-.04.03-.03.06.24.81.66,1.55,1.19,2.2.8.98,1.84,1.77,3.01,2.27l.58.24c.05.01.11.03.17.05-.93-.12-1.84-.25-2.74-.43-1.47-.28-2.87-.72-4.25-1.32h-.01s-.08.03-.05.06c.66,1.31,1.55,2.52,2.58,3.58,1.56,1.65,3.57,2.99,5.75,3.77-1.69-.14-3.37-.33-4.91-1.13-.04-.03-.09.03-.06.07.83,1.22,1.9,2.25,3.09,3.12,2.57,1.91,5.94,2.78,9.09,2.35-2.69.55-5.49.32-8.19-.1h0s0,0-.01,0c0,0-.01,0-.02.01,0,0,0,0,0,0,0,0,0,.01,0,.01,0,0,0,.01,0,.03t0,0s0,0,0,0c6.55,5.86,16.17,9.02,24.74,10.36,2.15.34,4.57.57,6.74.7,9,.48,18.05-.2,26.94-1.63.64-.11,3.58-.57,4.17-.68.52-.11,1.94-.41,2.48-.53,1.95-.4,4.7-1.02,6.57-1.62.91-.27,2.36-.65,3.24-.98.57-.2,3.49-1.26,3.99-1.44.52-.23,1.8-.77,2.34-1.01,5.98-2.61,12.41-6.52,16.22-11.93.65-.93,1.23-1.91,1.6-2.99.02-.05-.06-.08-.08-.04-1.81,2.4-4.33,3.47-7.02,3.71,5.1-1.72,8.95-8.56,10.23-13.25.02-.05-.06-.08-.08-.03-.46.83-.9,1.66-1.34,2.5-.63.51-1.22,1.04-1.87,1.52-.19.15-.39.29-.58.42.3-.28.62-.61.91-.9,2.3-2.61,3.8-6.14,3.59-9.66ZM17.12,63.25c-2.71-2.21-5.27-4.48-7.66-7.01-4.54-4.67-8.14-10.79-8.04-17.47.02-1.49.13-3.3.27-4.77.27-3.2.82-6.34,1.44-9.51.58-2.99,1.25-6.12.9-9.22-.08-.46-.17-1-.26-1.45l-.28-.94-.14-.47-.19-.45c-.32-.84-.8-1.73-1.24-2.51,7.57,2.55,14.41,7.74,18.15,14.88,2.92,5.6,3.79,11.89,3.76,18.19-1.61,1.99-2.9,4.39-3.98,6.75-1.87,4.34-2.87,9.2-2.73,13.99ZM113.88,77.27c-1.88.97-3.99,1.49-6.1,1.45-.06,0-.07.08-.01.09.99.17,2.01.14,3.01,0,2.36-.37,4.73-1.45,6.41-3.2-.28.51-.57,1.02-.88,1.52-1.76,2.99-3.95,5.92-7.04,7.62-.39.21-.79.39-1.21.53-1.7.04-3.44-.22-5.11-.66-.05-.02-.09.07-.04.09,1.11.55,2.31.9,3.54,1.09,3.32.59,7.04-.44,9.03-3.21-1.17,2.06-2.93,3.81-4.67,5.39-1.47,1.27-3.08,2.39-4.71,3.46-.39.24-1.79,1.02-2.17,1.25-1.38.8-3.04,1.56-4.47,2.26-.77.32-2.33.96-3.09,1.28-13.05,4.78-27.06,7.85-41.03,7.64-9.48-.28-18.96-1.86-27.83-5.24-3.54-1.4-7.06-3.04-10.16-5.27,3.18.79,6.87,1.01,9.87-.47.54-.18,1.08-.4,1.59-.66-4.41,1.44-8.43,1.08-12.33-1.63-1.06-.72-2.05-1.55-2.96-2.48,1.64,1.04,3.77,1.44,5.68,1.14,1.73.46,3.52.57,5.27.2-4.6-.08-8.32-1.54-11.72-4.72-.97-.91-1.88-1.89-2.69-2.95,2.3,1.71,5.4,2.23,8.21,1.8.48.07.98.1,1.47.11.02,0,.04-.01.04-.04,0-.03-.01-.05-.04-.06-.8-.16-1.61-.29-2.38-.57-2.23-.74-4.14-2.31-5.28-4.36,1.98,1.61,5.06,1.4,6.85-.4,1,.33,2.06.42,3.06.2,0-.03-.02-.05-.04-.05-.68-.05-1.34-.1-1.99-.27-1.28-.31-2.46-.95-3.46-1.81-.46-.4-.9-.84-1.29-1.33,1.55.51,3.21-.47,4.12-1.74.25.57.53,1.12.82,1.66.03.05.1.01.08-.04-2.11-8.29-2.08-17.09.74-25.2.89-2.72,2.22-5.34,3.47-7.93-.17.19-.34.4-.51.6.58-3.54.56-7.19-.07-10.77-1.24-7.33-5.76-14-11.98-18.03-2.95-1.92-6.21-3.41-9.66-4.16,13.89.13,26.57,7.27,37.02,15.96-.38.21-.75.44-1.11.67-2.19,1.48-4.12,3.29-5.92,5.21-.04.04.03.1.07.06.64-.58,1.31-1.14,1.99-1.68,1.7-1.32,3.51-2.67,5.52-3.49-.14.7-.25,1.4-.33,2.1l-.14,1.34c0,.78-.08,1.93.04,2.7.14,1.79.62,3.62,1.54,5.17.9,1.53,2.28,2.89,3.98,3.47.02.01.06,0,.06-.03v-.02c.46-3.03,1.81-5.85,3.89-8.07.59-.65,1.31-1.33,2-1.87.4-.33.81-.63,1.23-.93-1.47,2.76-1.87,6.09-.8,9.05h0c.01.06.08.05.08,0,3.59-6.79,9.18-10.71,16.89-11.15.91-.07,2.16-.06,3.09-.04.06,0,.06-.08,0-.09-.51-.06-1.02-.14-1.54-.18-4.69-.42-9.62.71-13.32,3.72-2.37,1.88-4.3,4.46-5.11,7.39,0-5.36,1.04-9.62,5.3-13.31.05-.04,0-.1-.05-.08-1.75.93-3.18,2.43-4.22,4.12,0,0,0,.01-.01.02-.36.15-.73.3-1.08.48-.54.32-1.13.61-1.63,1-3.1,2.16-5.37,6-4.82,9.85-2.23-1.29-3.55-3.64-4.05-6.08-.06-.2-.08-.41-.11-.62-.1-.61-.17-1.27-.17-1.88-.01-.37-.04-.89,0-1.26l.07-1.26c.13-.74.22-1.8.4-2.52,1.6-9.92,9.76-13.1,18.94-12.66.06.01.07-.08.01-.09-1.72-.37-3.49-.48-5.26-.42-1.51.06-3.03.28-4.49.68-1.32.04-2.64.22-3.88.65-.33.12-.66.25-.97.4,2.81-2.28,5.57-4.69,8.96-5.97,3.48-1.4,7.66-.87,10.39,1.84.03.03.08,0,.08-.04.1-.99-.11-2-.59-2.87-.33-.58-.79-1.11-1.34-1.49,1.27.63,2.29,1.71,3.21,2.78,1.7,2.03,2.91,4.4,4.05,6.77.66,1.24,1.41,2.45,2.26,3.58.02.06.06.11.12.16.75.97,1.56,1.89,2.47,2.72.04.04.1-.02.07-.06-.49-.72-.96-1.45-1.42-2.18.81.33,1.72.69,1.72.69,1.84.73,3.68,1.48,5.47,2.32.89.43,1.78.88,2.62,1.41.05.03.1-.04.06-.07-.74-.59-1.52-1.13-2.32-1.64,4.86-5.14,10.16-9.84,15.95-13.89,2.47-1.77,5.29-3.43,7.95-4.92,1.17-.57,2.43-1.24,3.59-1.8,1.23-.52,2.45-1.09,3.69-1.61.95-.34,1.97-.72,2.94-1.08-6.5,3.27-12.1,8.56-15.27,15.18-3.32,6.84-4.33,14.9-2.37,22.26.01.06.1.03.09-.02-.07-.7-.11-1.41-.14-2.11.82-2.07,1.37-4.3,3.15-5.78-1.66.68-2.76,2.38-3.19,4.15,0-.62,0-1.23.03-1.85.1-3.22.57-6.47,1.36-9.58,2.38-9.61,8.79-17.3,17.11-22.52-.32,2.69.1,5.42.7,8.05.82,3.67,2.35,7.13,3.91,10.53,4.04,10.81-.38,26.07-7.88,34.49-1.66,1.9-3.62,3.53-5.79,4.87-.04-1.6-.26-3.2-.69-4.75.13,5.76-.66,11.38-2.35,16.9-.02.05.06.08.08.04.75-1.25,1.3-2.61,1.74-3.99.1-.32.19-.64.28-.97.47.47,1.04.86,1.65,1.15,2.37,1.18,5.01.19,6.28-1.99-.28.86-.49,1.71-.77,2.54-1.15,3.32-3.41,5.36-6.66,6.49,1.84-.17,3.53-1.08,4.86-2.38.82.04,1.63-.01,2.44-.17,2.44-.42,4.96-1.92,5.82-4.31-.54,3.11-1.58,6.17-3.63,8.61-.64.75-1.36,1.41-2.13,2.02Z"/>
        <path class="cls-13" d="M107.78,78.72c2.11.04,4.22-.49,6.1-1.45.77-.61,1.49-1.27,2.13-2.02,2.06-2.45,3.09-5.5,3.63-8.61-.86,2.39-3.38,3.89-5.82,4.31-.8.15-1.62.21-2.44.17-1.33,1.3-3.03,2.21-4.86,2.38,3.26-1.12,5.52-3.17,6.66-6.49.28-.84.48-1.68.77-2.54-1.27,2.18-3.91,3.17-6.28,1.99-.62-.29-1.18-.68-1.65-1.15-.09.33-.18.65-.28.97-.45,1.38-1,2.74-1.74,3.99-.03.04-.1.01-.08-.04,1.69-5.52,2.48-11.14,2.35-16.9.43,1.55.65,3.15.69,4.75,2.17-1.34,4.13-2.97,5.79-4.87,7.5-8.42,11.91-23.68,7.88-34.49-1.56-3.4-3.09-6.86-3.91-10.53-.6-2.63-1.02-5.36-.7-8.05-8.32,5.21-14.73,12.91-17.11,22.52-.79,3.11-1.26,6.36-1.36,9.58-.02.62-.03,1.23-.03,1.85.43-1.78,1.53-3.48,3.19-4.15-1.78,1.48-2.34,3.71-3.15,5.78.03.7.07,1.41.14,2.11.01.05-.08.07-.09.02-1.96-7.37-.95-15.42,2.37-22.26,3.18-6.62,8.78-11.91,15.27-15.18-.98.36-2,.75-2.94,1.08-1.23.52-2.45,1.09-3.69,1.61-1.16.55-2.42,1.23-3.59,1.8-2.65,1.49-5.48,3.15-7.95,4.92-5.79,4.05-11.08,8.75-15.95,13.89.8.5,1.58,1.04,2.32,1.64.04.03,0,.11-.06.07-.84-.53-1.73-.98-2.62-1.41-1.79-.85-3.62-1.59-5.47-2.32,0,0-.91-.37-1.72-.69.46.73.93,1.46,1.42,2.18.03.04-.03.1-.07.06-.91-.83-1.73-1.74-2.47-2.72-.06-.05-.1-.1-.12-.16-.85-1.13-1.6-2.34-2.26-3.58-1.15-2.38-2.35-4.75-4.05-6.77-.91-1.08-1.93-2.15-3.21-2.78.55.38,1,.91,1.34,1.49.49.87.7,1.88.59,2.87,0,.04-.05.07-.08.04-2.73-2.72-6.91-3.24-10.39-1.84-3.39,1.29-6.15,3.69-8.96,5.97.32-.16.64-.29.97-.4,1.25-.43,2.57-.61,3.88-.65,1.47-.4,2.99-.62,4.49-.68,1.77-.06,3.54.05,5.26.42.06,0,.04.1-.01.09-9.18-.44-17.34,2.74-18.94,12.66-.18.72-.28,1.78-.4,2.52l-.07,1.26c-.04.37-.02.89,0,1.26,0,.61.07,1.28.17,1.88.03.21.05.42.11.62.51,2.44,1.82,4.79,4.05,6.08-.55-3.85,1.73-7.68,4.82-9.85.49-.39,1.09-.68,1.63-1,.35-.18.72-.33,1.08-.48,0,0,0-.01.01-.02,1.05-1.68,2.47-3.19,4.22-4.12.05-.02.1.04.05.08-4.26,3.69-5.31,7.95-5.3,13.31.81-2.93,2.74-5.51,5.11-7.39,3.71-3.01,8.64-4.13,13.32-3.72.52.04,1.03.12,1.54.18.06,0,.05.1,0,.09-.93-.01-2.18-.03-3.09.04-7.71.45-13.3,4.37-16.89,11.15,0,.04-.07.05-.08,0h0c-1.07-2.98-.66-6.31.8-9.07-.42.3-.83.6-1.23.93-.69.54-1.41,1.22-2,1.87-2.08,2.22-3.43,5.04-3.89,8.07v.02s-.04.04-.06.03c-1.7-.59-3.07-1.95-3.98-3.47-.92-1.55-1.4-3.38-1.54-5.17-.12-.76-.04-1.92-.04-2.7l.14-1.34c.08-.7.19-1.41.33-2.1-2,.82-3.81,2.17-5.52,3.49-.68.54-1.35,1.1-1.99,1.68-.04.04-.11-.02-.07-.06,1.8-1.92,3.73-3.73,5.92-5.21.36-.24.73-.46,1.11-.67C28.82,16.69,16.14,9.54,2.25,9.42c3.44.76,6.7,2.24,9.66,4.16,6.22,4.03,10.74,10.7,11.98,18.03.63,3.57.64,7.23.07,10.77.17-.2.33-.4.51-.6-1.25,2.59-2.58,5.21-3.47,7.93-2.82,8.1-2.85,16.9-.74,25.2.02.05-.06.08-.08.04-.3-.54-.57-1.1-.82-1.66-.92,1.27-2.57,2.24-4.12,1.74.39.48.83.93,1.29,1.33,1,.87,2.18,1.5,3.46,1.81.64.17,1.31.22,1.99.27.03,0,.04.03.04.05-1,.22-2.06.13-3.06-.2-1.79,1.8-4.87,2.01-6.85.4,1.15,2.05,3.05,3.62,5.28,4.36.76.28,1.57.41,2.38.57.03,0,.05.03.04.06,0,.02-.03.04-.04.04-.49-.01-.99-.04-1.47-.11-2.81.43-5.91-.1-8.21-1.8.81,1.06,1.73,2.05,2.69,2.95,3.41,3.18,7.12,4.64,11.72,4.72-1.74.37-3.54.26-5.27-.2-1.92.3-4.05-.1-5.68-1.14.9.93,1.9,1.76,2.96,2.48,3.9,2.71,7.92,3.07,12.33,1.63-.51.27-1.05.49-1.59.66-3,1.49-6.69,1.27-9.87.47,3.1,2.23,6.62,3.87,10.16,5.27,8.87,3.38,18.35,4.96,27.83,5.24,13.97.22,27.98-2.86,41.03-7.64.76-.32,2.32-.97,3.09-1.28,1.44-.7,3.09-1.46,4.47-2.26.39-.23,1.78-1.02,2.17-1.25,1.62-1.07,3.24-2.19,4.71-3.46,1.74-1.57,3.5-3.32,4.67-5.39-1.99,2.77-5.71,3.8-9.03,3.21-1.23-.19-2.43-.54-3.54-1.09-.05-.02-.01-.11.04-.09,1.67.43,3.41.69,5.11.66.42-.14.83-.32,1.21-.53,3.08-1.7,5.28-4.63,7.04-7.62.31-.5.59-1.01.88-1.52-1.67,1.74-4.04,2.83-6.41,3.2-1,.15-2.02.18-3.01,0-.06,0-.05-.1.01-.09ZM108.41,50.21c4.75-3.63,8.89-8.54,10.23-14.48l.26-1.19-.16,1.2c-.65,4.46-3.16,8.52-6.37,11.61-1.19,1.12-2.49,2.13-3.91,2.93-.04.03-.1-.05-.05-.08ZM56.19,79.95c5.07-.15,6.5,2.86,4.48,3.82-1.11.53-2.16-.1-3.38.95-1.06.91-2.12.43-2.63.09-.22-.15-.46-.25-.72-.3-.53-.1-1.48-.39-2.23-1.19-1.1-1.17-.59-3.23,4.48-3.38ZM43,48.1c-1.3-.69-2.58-1.51-3.94-1.91-4.39-1.58-8.26,1.37-10.79,4.75,1.72-4.33,6.48-7.76,11.13-5.64,1.42.63,2.65,1.58,3.61,2.74.02.02.01.05,0,.06ZM64.7,95.48c-.31.28-.62.56-.96.82-1.06.75-2.22,1.27-3.51,1.41-1.69.2-3.47-.28-4.81-1.32-.04-.03,0-.11.06-.07,2.61,1.39,5.6,1.3,8.12-.23.36-.21.69-.46,1.05-.67.04-.03.1.04.06.07ZM70.61,86.66c-.28-.29-.58-.54-.91-.78.06,1.51-.84,2.93-2.09,3.75-.78.5-1.66.82-2.56,1.02-.3,1.35-1.15,2.69-2.19,3.63-2.27,2-6.33,2.44-8.34-.14-.95-1.1-1.62-2.41-2.06-3.77-1.15.51-2.5.59-3.64.04-1-.51-1.67-1.49-1.89-2.52-.15.16-.3.33-.45.51-.65.68-1.51,1.1-2.4,1.27.8-.39,1.58-.83,2.19-1.47.56-.69,1.34-1.32,2.23-1.49-.58.28-1.06.65-1.5,1.1.85,2.29,3.1,3.05,5.28,2.13,1.78-.83,2.9-2.59,3.63-4.38,0-.04.07-.04.08,0,1.32,2.68,3.98,4.91,7.07,4.82,2.79-.06,6.32-1.42,6.51-4.59-.41-.3-.85-.58-1.29-.85.95.29,1.85.79,2.54,1.52.57.82,1.44,1.24,2.43,1.28-1,.21-2.07-.23-2.66-1.07ZM76.62,42.79c-1.34.43-2.61,1.13-3.89,1.91-.02.01-.05,0-.07-.01.87-1.2,2.21-2.14,3.62-2.79,4.65-2.12,9.41,1.32,11.13,5.64-2.54-3.38-6.4-6.33-10.79-4.75ZM101.32,34.57c-.97,2.21-1.56,4.59-1.57,7.01,0,1.46.23,2.84.56,4.29.01.05-.06.08-.08.04-1.62-2.61-1.47-5.97-.41-8.75.37-.93.82-1.83,1.42-2.63.03-.04.1,0,.08.05ZM101.94,49.49s-.11-.01-.07-.06c2.97-3.73,3.89-8.58,4.64-13.19-.28.4-.55.8-.81,1.21-.82,1.35-1.57,2.95-2.29,4.38-.02.05-.1.04-.09-.02-.05-1.6-.29-3.18-.74-4.72.51,1.38.91,2.86.85,4.34.28-.94.68-1.85,1.15-2.71.54-.97,1.17-1.91,1.96-2.69.02-.02.05-.02.07,0v.07s0,0,0,0c0,0,0,0,0,0,.03.58-.06,1.19-.12,1.77-.56,4.13-1.73,8.46-4.56,11.64Z"/>
        <path class="cls-25" d="M21.34,24.05c.57.13,1.15.21,1.74.15.45-.05.93-.21,1.19-.61.3-.46.28-1.09.24-1.61-.04-.5-.16-.99-.23-1.49-.06-.42-.11-.88.04-1.3.45-1.2,2.2-1.04,3.19-.91.76.1,1.53.26,2.29.16C21.49,13.18,12.18,9.51,2.25,9.42c3.44.76,6.7,2.24,9.66,4.16,3.98,2.58,7.26,6.24,9.43,10.47Z"/>
        <path class="cls-25" d="M99.23,21.47c.42.54.91,1.03,1.46,1.43,1.56,1.15,3.49,1.73,5.41,1.88.95.07,1.94.08,2.88-.09,1.01-.19,1.95-.61,2.86-1.09,1.74-.94,3.42-2.12,5.44-2.35,1.43-.16,2.99.04,4.28.73-.24-1.12-.55-2.21-.94-3.26-1.56-3.4-3.09-6.86-3.91-10.53-.6-2.63-1.02-5.36-.7-8.05-7.98,5-14.18,12.27-16.78,21.33Z"/>
        <path class="cls-25" d="M95.18,13.55c1.69.95,2.16,2.88,2.61,4.63.14.55.3,1.08.5,1.6.47-1.44,1.03-2.85,1.69-4.2,3.18-6.62,8.78-11.91,15.27-15.18-.98.36-2,.75-2.94,1.08-1.23.52-2.45,1.09-3.69,1.61-1.16.55-2.42,1.23-3.59,1.8-2.65,1.49-5.48,3.15-7.95,4.92-1.58,1.1-3.12,2.26-4.63,3.46.91-.21,1.85-.21,2.72.28Z"/>
        <path class="cls-25" d="M69.51,85.26c-.2-.36-.59-.59-.96-.76-.47-.22-.96-.41-1.46-.58-1.02-.35-2.08-.58-3.15-.71-2.4-.3-4.83-.11-7.18.41-.17.04-.15.24-.03.32-.29.33-.4.8-.33,1.25-.16.04-.31.06-.46.06-.04.1-.09.19-.14.28-.09.14-.19.26-.3.37.19-.4.22-.88-.13-1.21-.41-.39-1.1-.36-1.63-.34-1.3.03-2.58.38-3.74.96-.67.33-1.29.75-1.86,1.23-.38.32-.9.73-1.09,1.22-.02.02-.03.03-.05.04,0,.01.01.03.02.04-.03.1-.06.21-.05.32,0,0,0,.01,0,.02-.01.11.05.22.18.2.04,0,.08-.01.11-.02.99,1.84,3.03,2.4,5.02,1.57,1.78-.83,2.9-2.59,3.63-4.38,0-.04.07-.04.08,0,1.32,2.68,3.98,4.91,7.07,4.82,2.61-.05,5.86-1.25,6.43-4,0-.07.01-.14.02-.22.15-.26.18-.56-.01-.9Z"/>
        <path class="cls-9" d="M52.69,84.93c.28.2.59.36.9.53.4.22.79.42,1.23.55.27.08.55.14.84.18.1-.21.19-.41.27-.62,0-.04.07-.04.08,0,.12.24.25.47.38.69.91.04,1.82-.2,2.64-.59.87-.42,1.69-.96,2.49-1.49.36-.24.71-.64.88-1.08-1.89-.08-3.78.13-5.63.53-.17.04-.15.24-.03.32-.29.33-.4.8-.33,1.25-.16.04-.31.06-.46.06-.04.1-.09.19-.14.28-.09.14-.19.26-.3.37.19-.4.22-.88-.13-1.21-.41-.39-1.1-.36-1.63-.34-.51.01-1.01.07-1.5.18.12.16.29.3.44.41Z"/>
        <path class="cls-9" d="M55.92,85.49c-.18.32-.36.64-.55.95-.25.4-.55.75-.9,1.07-.62.57-1.35,1-2.14,1.32-.67.27-1.39.47-2.11.47-1.19,0-2.56-.43-3.21-1.49,0,0,0,0,0,0,0,.01.01.03.02.04-.03.1-.06.21-.05.32,0,0,0,.01,0,.02-.01.11.05.22.18.2.04,0,.08-.01.11-.02.99,1.84,3.03,2.4,5.02,1.57,1.78-.83,2.9-2.59,3.63-4.38,0-.01.01-.01.02-.02,0-.02-.02-.03-.02-.05Z"/>
        <path class="cls-9" d="M69.51,85.26c-.03-.06-.08-.11-.13-.17,0,.01,0,.02,0,.04-.03.64-.39,1.15-.83,1.58-1.85,1.8-4.64,2.98-7.25,2.64-1.18-.15-2.18-.68-3.11-1.42-.5-.4-1.02-.81-1.48-1.27-.08-.08-.17-.17-.24-.26,1.42,2.28,3.84,4.05,6.6,3.97,2.61-.05,5.86-1.25,6.43-4,0-.07.01-.14.02-.22.15-.26.18-.56-.01-.9Z"/>
        <path class="cls-14" d="M67.82,89.48c.29-.17.57-.37.82-.61.32-.32.51-.69.63-1.08-.34.67-.85,1.25-1.45,1.69Z"/>
        <path class="cls-4" d="M68.38,89c-.23.23-.49.44-.76.62-.78.5-1.66.82-2.56,1.02-.3,1.35-1.15,2.69-2.19,3.63-2.27,2-6.33,2.44-8.34-.14-.95-1.1-1.62-2.41-2.06-3.77-.76.34-1.61.49-2.43.39.06.69,1.08.78,1.61.87.33.06.66.08.9.34.38.41.6.96.87,1.43.81,1.42,1.94,2.78,3.43,3.5,2.25.74,4.67.46,6.76-.81.36-.21.69-.46,1.05-.67.01,0,.03,0,.04,0,.16-.24.28-.5.38-.77.16-.43.31-.87.43-1.31.12-.45.23-.92.49-1.32.49-.76,1.35-1.11,1.96-1.76.43-.45,1-1.15,1.03-1.83-.18.21-.38.41-.59.58Z"/>
        <path class="cls-4" d="M85.62,50.95c-2.41-.43-4.93-.25-7.28.43-2.13.62-4.05,1.69-5.59,3.29-1.45,1.5-2.5,3.35-3.19,5.31-.73,2.06-1.08,4.23-1.14,6.41-.06,2.21.18,4.43.71,6.58.5,2.02,1.26,3.98,2.36,5.75,0,0,0,.01,0,.02.06.06.11.12.17.18.06.02.09.06.11.11.26.28.53.55.82.79.49.4,1.04.67,1.65.82,1.21.29,2.51.33,3.75.27,1.3-.07,2.57-.33,3.83-.66,1.24-.33,2.46-.76,3.7-1.09,1.19-.32,2.41-.51,3.64-.64.26-.33.51-.68.73-1.04,1.48-2.36,2.48-5.02,3.39-7.64.89-2.57,1.53-5.25,1.43-8-.1-2.79-1.04-5.46-2.91-7.57-1.61-1.82-3.81-2.88-6.18-3.31ZM73.09,79.89c-.07.07-.19.07-.26,0-.07-.07-.14-.14-.21-.22-.09-.11-.17-.23-.23-.36-.05-.09-.02-.19.07-.25.08-.05.21-.02.25.07.05.1.11.19.17.28.06.08.13.15.2.22s.07.19,0,.26Z"/>
        <path class="cls-4" d="M46.61,80.05c.24-.36.46-.74.64-1.13,1.1-2.33,1.3-5.04,1.2-7.58-.05-1.21-.18-2.42-.35-3.62-.17-1.26-.43-2.52-.8-3.74-.75-2.42-2.06-4.7-4.11-6.25-1.78-1.34-4.02-2.1-6.19-2.49-2.18-.39-4.45-.4-6.62.08-2.08.46-4.09,1.39-5.62,2.9-.78.77-1.44,1.67-1.91,2.67-.53,1.11-.75,2.36-.79,3.58-.1,2.7.59,5.4,1.51,7.92.44,1.2.94,2.38,1.51,3.53.54,1.1,1.12,2.19,1.88,3.16.4.51.85,1,1.38,1.38.58.42,1.21.65,1.92.71,1.44.12,2.9-.25,4.31.14.04-.01.08-.01.13,0,.72.33,1.54.38,2.31.35.7-.03,1.4-.14,2.09-.3.82-.19,1.59-.5,2.41-.7.87-.22,1.78-.32,2.67-.44.81-.11,1.65-.28,2.46-.18Z"/>
        <path class="cls-15" d="M7.83,10.43c2.99.58,5.92,1.61,8.67,2.93,3.19,1.52,6.11,3.49,9,5.52,1.53,1.07,3.05,2.14,4.62,3.14.79.5,1.59.98,2.41,1.43.75.42,1.53.79,2.28,1.2.72.4,1.46.78,2.27.97.73.17,1.4.03,2.02-.37C28.68,16.61,16.06,9.54,2.25,9.42c.71.16,1.42.35,2.11.57,1.17.06,2.34.22,3.46.44Z"/>
        <path class="cls-15" d="M82.59,22.2c.01.07.02.14.04.21.15.58.5,1.09,1.07,1.32.73.29,1.59.15,2.29-.18.85-.39,1.57-1.02,2.22-1.69.65-.68,1.24-1.41,1.81-2.16.56-.73,1.13-1.44,1.75-2.12.81-.89,1.63-1.77,2.47-2.63,3.33-3.43,6.95-6.62,10.93-9.27,2-1.33,4.1-2.52,6.28-3.52.85-.39,1.7-.77,2.57-1.1.4-.22.81-.44,1.22-.65-.98.36-2,.75-2.94,1.08-1.23.52-2.45,1.09-3.69,1.61-1.16.55-2.42,1.23-3.59,1.8-2.65,1.49-5.48,3.15-7.95,4.92-5.22,3.65-10.03,7.83-14.49,12.39Z"/>
        <path class="cls-23" d="M106.44,36.15c-.55.46-.97,1.08-1.33,1.7.39-.61.83-1.18,1.33-1.7,0,0,0,0,0,0Z"/>
        <path class="cls-23" d="M118.2,28.82c-.34-3.07-1.08-6.1-2.03-9.04-.9-2.79-2.01-5.49-3.14-8.19-.6-1.43-1.23-2.86-1.72-4.33-.33-1-.68-2.12-.63-3.2-5.68,4.88-9.94,11.16-11.78,18.6-.79,3.11-1.26,6.36-1.36,9.58,0,.22-.01.43-.02.65.02.31.04.62.06.93.29-1.02.8-2.01,1.51-2.76.55-.86,1.28-1.52,2.41-1.56.13,0,.24.16.16.28-.42.61-.32,1.45-.3,2.15.02.93-.08,1.86-.26,2.78.04-.06.08-.12.13-.18.03-.04.1,0,.08.05-.13.29-.25.58-.36.88-.08.36-.18.72-.28,1.07-.21.73-.44,1.48-.61,2.23.06-.09.12-.19.17-.28.37-.58.81-1.2,1.4-1.58.45-.29,1-.29,1.3.2.35.59.47,1.35.58,2.01.06.33.11.66.15.99.28-.77.6-1.52,1-2.23.46-.83,1.02-1.65,1.8-2.21.09-.07.25,0,.27.11.34,1.83.02,3.72-.47,5.5-.22.79-.48,1.58-.76,2.35-.24.65-.53,1.28-.68,1.96-.16.71-.13,1.46.45,1.98.51.45,1.19.62,1.85.64,1.29.04,2.64-.38,3.8-.9,1.31-.59,2.48-1.47,3.09-2.8.06-.14.22-.11.29-.01.93-1.18,1.75-2.43,2.45-3.75.42-.98.76-2,1.02-3.04.69-2.89.74-5.91.42-8.85Z"/>
        <path class="cls-12" d="M100.96,35.45c-.08.36-.18.72-.28,1.07-.21.73-.44,1.48-.61,2.23.06-.09.12-.19.17-.28.37-.58.81-1.2,1.4-1.58.45-.29,1-.29,1.3.2.35.59.47,1.35.58,2.01.06.33.11.66.15.99.28-.77.6-1.52,1-2.23.46-.83,1.02-1.65,1.8-2.21.09-.07.25,0,.27.11.34,1.83.02,3.72-.47,5.5-.22.79-.48,1.58-.76,2.35-.24.65-.53,1.28-.68,1.96-.16.71-.13,1.46.45,1.98.51.45,1.19.62,1.85.64.24,0,.49,0,.74-.03.48-.41.87-.91,1.21-1.45,1.04-1.65,1.62-3.56,2.11-5.44.57-2.18.85-4.41.84-6.66,0-2.31-.28-4.62-.87-6.86-.49-1.86-1.08-3.89-2.62-5.16-.78-.64-1.79-.92-2.61-1.5-.81-.57-1.5-1.34-2.03-2.17-.52-.82-.89-1.73-1.09-2.68-.19-.94-.18-1.87-.08-2.82,0-.01,0-.02,0-.04-1.7,2.84-3.01,5.94-3.83,9.26-.79,3.11-1.26,6.36-1.36,9.58,0,.22-.01.43-.02.65.02.31.04.62.06.93.29-1.02.8-2.01,1.51-2.76.55-.86,1.28-1.52,2.41-1.56.13,0,.24.16.16.28-.42.61-.32,1.45-.3,2.15.02.93-.08,1.86-.26,2.78.04-.06.08-.12.13-.18.03-.04.1,0,.08.05-.13.29-.25.58-.36.88Z"/>
        <path class="cls-23" d="M105.94,41.12c.29-1.05.51-2.16.57-3.26,0,0,0,0,0,0-.16,1.19-.37,2.39-.66,3.58.03-.11.07-.21.1-.32Z"/>
        <path class="cls-13" d="M19.85,49.26c-1.87,4.34-2.87,9.2-2.73,13.99-2.71-2.21-5.27-4.48-7.66-7.01-4.54-4.67-8.14-10.79-8.04-17.47.02-1.49.13-3.3.27-4.77.27-3.2.82-6.34,1.44-9.51.58-2.99,1.25-6.12.9-9.22-.08-.46-.17-1-.26-1.45l-.28-.94-.14-.47-.19-.45c-.32-.84-.8-1.73-1.24-2.51,7.57,2.55,14.41,7.74,18.15,14.88,2.92,5.6,3.79,11.89,3.76,18.19-1.61,1.99-2.9,4.39-3.98,6.75Z"/>
        <path class="cls-8" d="M22.85,40.8c-.77,2.13-1.88,4.15-3.45,5.79-1.64,1.71-3.81,3.01-6.12,3.56-1.17.28-2.39.36-3.58.15-1.06-.18-2.07-.6-2.97-1.18-1.89-1.21-3.31-3.04-4.5-4.91-.05-.08-.1-.17-.15-.25,1.23,4.64,4.05,8.85,7.38,12.28,2.39,2.52,4.96,4.8,7.66,7.01-.14-4.79.86-9.65,2.73-13.99,1.08-2.36,2.37-4.75,3.98-6.75,0-1.51-.04-3.02-.15-4.52-.22.95-.49,1.89-.83,2.81Z"/>
        <path class="cls-23" d="M11.46,18.09c.52,4.57-.84,9.01-1.82,13.42-.51,2.28-.91,4.6-.93,6.95-.01,1.81.18,3.61.54,5.38.73,3.63,2.12,7.16,4.19,10.23,1.1,1.63,2.41,3.13,3.91,4.4.39-3.18,1.25-6.31,2.5-9.2,1.08-2.36,2.37-4.75,3.98-6.75.03-6.3-.85-12.59-3.76-18.19-2.23-4.25-5.56-7.81-9.49-10.53.43,1.39.72,2.83.89,4.3Z"/>
        <path class="cls-12" d="M20,26.15c-.83.24-1.64.56-2.4.97-1.36.72-2.57,1.73-3.5,2.97-.9,1.2-1.53,2.59-1.93,4.03-.43,1.55-.6,3.16-.6,4.77,0,1.72.18,3.43.51,5.11.33,1.74.8,3.46,1.39,5.13.58,1.65,1.26,3.26,2.06,4.82.6,1.17,1.26,2.31,1.99,3.39.44-2.79,1.24-5.53,2.34-8.08,1.08-2.36,2.37-4.75,3.98-6.75.02-5.71-.7-11.41-3-16.59-.28.07-.56.14-.83.23Z"/>
        <path class="cls-22" d="M64.7,95.48c-.31.28-.62.56-.96.82-1.06.75-2.22,1.27-3.51,1.41-1.69.2-3.47-.28-4.81-1.32-.04-.03,0-.11.06-.07,2.61,1.39,5.6,1.3,8.12-.23.36-.21.69-.46,1.05-.67.04-.03.1.04.06.07Z"/>
        <path class="cls-22" d="M101.32,34.57c-.97,2.21-1.56,4.59-1.57,7.01,0,1.46.23,2.84.56,4.29.01.05-.06.08-.08.04-1.62-2.61-1.47-5.97-.41-8.75.37-.93.82-1.83,1.42-2.63.03-.04.1,0,.08.05Z"/>
        <path class="cls-22" d="M106.62,36.09c.03.58-.06,1.19-.12,1.77-.56,4.13-1.73,8.46-4.56,11.64-.04.04-.11-.01-.07-.06,2.97-3.73,3.89-8.58,4.64-13.19-.28.4-.55.8-.81,1.21-.82,1.35-1.57,2.95-2.29,4.38-.02.05-.1.04-.09-.02-.05-1.6-.29-3.18-.74-4.72.51,1.38.91,2.86.85,4.34.28-.94.68-1.85,1.15-2.71.54-.97,1.17-1.91,1.96-2.69.02-.02.05-.02.07,0v.07s0,0,0,0c0,0,0,0,0,0Z"/>
        <path class="cls-22" d="M118.9,34.54l-.16,1.2c-.65,4.46-3.16,8.52-6.37,11.61-1.19,1.12-2.49,2.13-3.91,2.93-.04.03-.1-.05-.05-.08,4.75-3.63,8.89-8.54,10.23-14.48l.26-1.19Z"/>
        <path class="cls-18" d="M60.67,83.77c-1.11.53-2.16-.1-3.38.95-1.06.91-2.12.43-2.63.09-.22-.15-.46-.25-.72-.3-.53-.1-1.48-.39-2.23-1.19-1.1-1.17-.59-3.23,4.48-3.38,5.07-.15,6.5,2.86,4.48,3.82Z"/>
        <path class="cls-22" d="M60.7,83.83c-.96.46-2.12.07-3,.69-.42.29-.83.7-1.37.77-.54.1-1.1-.05-1.55-.32-.44-.34-.92-.38-1.44-.54-2.74-.95-3.01-3.39,0-4.16,2.45-.54,5.49-.76,7.56.9.93.79,1,2.09-.2,2.66h0ZM60.63,83.7c1.11-.48,1.03-1.73.18-2.43-1.93-1.73-6.74-1.61-8.83-.24-.97.67-.83,1.84.06,2.52.39.33.85.58,1.33.74.48.14,1.06.23,1.47.55.44.26.95.39,1.44.3.53-.08.88-.46,1.32-.75.9-.63,2.08-.25,3.03-.69h0Z"/>
        <path class="cls-19" d="M59.44,81.16c-.06,0-.1-.04-.12-.08-.19-.05-.39-.1-.59-.14-.3-.06-.61-.1-.92-.11-.23,0-.5,0-.71.09-.17.08-.25.18-.24.37.03.34.32.5.62.6.36.12.73.16,1.1.22.4.06.84.11,1.24.03.25-.05.79-.3.49-.6-.22-.22-.58-.33-.88-.38Z"/>
        <path class="cls-6" d="M60.69,82.85c-.4.28-.86.38-1.33.48-.59.12-1.19.2-1.79.21-1.16.04-2.34-.11-3.43-.51-.74-.27-1.78-.8-1.71-1.74.02-.28.12-.53.28-.75-1.75.73-1.76,1.96-1,2.78.75.8,1.7,1.08,2.23,1.19.26.05.5.15.72.3.51.34,1.58.82,2.63-.09,1.22-1.05,2.27-.43,3.38-.95.77-.37,1.03-1.02.8-1.69-.2.31-.49.58-.77.78Z"/>
        <path class="cls-22" d="M70.84,86.45c-.7-.73-1.59-1.22-2.54-1.52.44.27.87.55,1.29.85-.18,3.17-3.71,4.53-6.51,4.59-3.1.09-5.75-2.14-7.07-4.82-.01-.04-.08-.04-.08,0-.72,1.78-1.84,3.55-3.63,4.38-2.18.91-4.43.16-5.28-2.13.44-.45.92-.83,1.5-1.1-.9.18-1.67.8-2.23,1.49-.61.63-1.39,1.08-2.19,1.47.89-.17,1.75-.59,2.4-1.27.14-.18.29-.35.45-.51.22,1.04.89,2.01,1.89,2.52,1.14.55,2.49.47,3.64-.04.45,1.37,1.11,2.67,2.06,3.77,2.01,2.58,6.07,2.15,8.34.14,1.04-.95,1.89-2.28,2.19-3.63.9-.21,1.78-.52,2.56-1.02,1.24-.82,2.15-2.24,2.09-3.75.32.24.63.5.91.78.59.84,1.66,1.28,2.66,1.07-.99-.04-1.86-.46-2.43-1.28ZM62.66,94.03c-1.12.95-2.57,1.47-4.04,1.52-1.11.11-2.06-.2-2.87-.76,1.19-2.82,4.71-3.33,7.43-2.93,0,0,.8.12,1.12.18-.43.76-.98,1.45-1.64,2ZM64.36,91.94c-.3-.07-1.15-.25-1.15-.25-2.77-.55-6.51.04-7.55,3.04-1.44-1.02-2.44-2.81-3.1-4.42.35-.17.68-.37.98-.62,1.22-1.02,2.02-2.47,2.43-3.99.26.69.64,1.33,1.06,1.93,1.62,2.36,4.4,3.61,7.24,3.16.23-.04.46-.08.68-.13-.17.44-.36.87-.59,1.27Z"/>
        <path class="cls-23" d="M64.3,92.03c-.43.76-.98,1.45-1.64,2-1.12.95-2.57,1.47-4.04,1.52-1.11.11-2.06-.2-2.87-.76,1.19-2.82,4.71-3.33,7.43-2.93,0,0,.8.12,1.12.18Z"/>
        <path class="cls-5" d="M63.18,91.86c-2.72-.4-6.24.11-7.43,2.93.05.03.09.06.14.09.46-.58,1.02-1.08,1.68-1.41.71-.35,1.53-.52,2.32-.41.62.09,1.37.35,1.64.97.1.23.12.47.08.71.37-.2.73-.44,1.05-.71.67-.55,1.21-1.24,1.64-2-.32-.05-1.12-.18-1.12-.18Z"/>
        <path class="cls-10" d="M64.95,90.67c-.17.44-.36.87-.59,1.27-.3-.07-1.15-.25-1.15-.25-2.77-.55-6.51.04-7.55,3.04-1.44-1.02-2.44-2.81-3.1-4.42.35-.17.68-.37.98-.62,1.22-1.02,2.02-2.47,2.43-3.99.26.69.64,1.33,1.06,1.93,1.62,2.36,4.4,3.61,7.24,3.16.23-.04.46-.08.68-.13Z"/>
        <path class="cls-10" d="M64.95,90.67c-.17.44-.36.87-.59,1.27-.3-.07-1.15-.25-1.15-.25-2.77-.55-6.51.04-7.55,3.04-1.44-1.02-2.44-2.81-3.1-4.42.35-.17.68-.37.98-.62,1.22-1.02,2.02-2.47,2.43-3.99.26.69.64,1.33,1.06,1.93,1.62,2.36,4.4,3.61,7.24,3.16.23-.04.46-.08.68-.13Z"/>
        <path class="cls-10" d="M55.38,90.88c1.04-.11,2.09-.09,3.13.01,1.12.11,2.26.29,3.33.64.47.02.93.08,1.37.16,0,0,.86.18,1.15.25.23-.41.42-.84.59-1.27-.22.05-.45.1-.68.13-2.84.45-5.62-.79-7.24-3.16-.42-.61-.79-1.24-1.06-1.93-.42,1.51-1.22,2.97-2.43,3.99-.3.24-.63.45-.98.62.14.35.31.71.49,1.07.75-.27,1.54-.43,2.34-.51Z"/>
        <path class="cls-15" d="M42.34,82.58v-.4c-.21.07-.42.13-.63.18-.72.18-1.48.26-2.21.32-.91.07-1.81.05-2.71-.07-1.76-.22-3.47-.7-5.23-.92-1.33-.16-2.65-.14-3.95.23-1.01.29-2.14.83-2.59,1.84.19.06.38.11.56.18,1.13-.91,3.33-1.98,6.94-.94,0,0-1.99-.19-3.3.48,0,0,5.33-.04,9.1,1.14,0,0-1.43-.77-3.05-1.33-.6-.15-.97-.3-.97-.3.32.09.65.19.97.3,1.52.39,4.55.85,7.07-.72Z"/>
        <path class="cls-14" d="M87.71,79.61s4.18-.75,6.82.32c-.53-.39-1.13-.66-1.76-.85-1.66-.5-3.41-.53-5.11-.24-1.78.31-3.49.91-5.2,1.49-1.32.45-2.68.85-4.07.99-.72.07-1.47.07-2.18-.07,1.53.82,4.15,1.7,7.11.49,0,0-1.62.37-2.26,0,0,0,2.74-.2,4.7-1.17,1.96-.97,4.58-.75,5.6-.44,0,0-1.65-.7-3.64-.53Z"/>
        <path class="cls-22" d="M48.73,78.51c-1.13,1.31-2.52,2.46-4.08,3.31t0,0c-.44.24-.9.46-1.37.65-1.69.68-3.51,1-5.33.8-1.35-.1-2.63-.6-3.94-.86-1.01-.23-2.08-.39-3.12-.45-1.99-.08-4.3.1-5.74,1.63,1.18-.06,2.73.91,3.03,2.01-.02.01-.05,0-.06-.01-.35-.52-.8-.95-1.34-1.26-.54-.32-1.14-.45-1.74-.64-.03,0-.05-.02-.05-.04.27-.49.73-.84,1.19-1.15,1.08-.67,2.32-.96,3.58-1.05h0s.08,0,.11,0c.62-.04,1.23-.03,1.84,0,2.41.11,4.67,1.11,7.06,1.23,2.61.07,5.19-.85,7.37-2.27.31-.2.62-.41.92-.62.05-.04.1-.08.16-.12.5-.37.98-.78,1.43-1.21.03-.04.11.01.07.06Z"/>
        <path d="M47.22,79.66c-.03.1-.06.19-.08.29-.01.05-.1.03-.09-.02,0-.05.01-.1.01-.15.22-2.27.23-4.54-.01-6.71-.04-.36-.09-.72-.14-1.08-.43-2.72-1.31-5.22-2.75-7.25-.03-.05-.06-.09-.1-.14-.04-.06-.09-.12-.14-.19-.25-.33-.52-.64-.8-.94-.06-.06-.11-.11-.17-.17h0s-.08-.09-.12-.13c-1.3-1.29-2.93-2.28-4.93-2.87-.37-.11-.75-.2-1.14-.28-.97-.2-2.03-.31-3.17-.33-10.46-.17-9.52,14.82-4.79,20.76.32.37.68.71,1.08.98.11.07.21.14.33.2.05.02,0,.11-.04.08-.14-.08-.27-.17-.4-.27h0c-1.9-1.38-2.88-3.7-3.68-5.84-.3-.9-.58-1.89-.82-2.92-.11-.49-.2-.99-.29-1.49-.04-.24-.07-.47-.11-.71-.06-.39-.1-.79-.13-1.19-.03-.29-.05-.57-.06-.86-.02-.39-.03-.79-.03-1.18.01-2.41.46-4.75,1.59-6.67,2.4-4,7.27-4.4,11.37-3.32,7.34,1.86,10.38,8.2,10.41,15.23.03,2.42-.17,4.84-.79,7.17Z"/>
        <path d="M37.95,59.95c-.4,0-.8.03-1.2.08-4.66.64-8.27,4.98-8.27,10.21,0,5.68,4.25,10.3,9.47,10.3,4.32,0,7.97-3.16,9.1-7.46.24-.9.37-1.85.37-2.83,0-5.68-4.24-10.3-9.47-10.3ZM46.91,71.99c-.76,4.64-4.49,8.18-8.96,8.18-5.02,0-9.1-4.45-9.1-9.93s4.05-9.9,9.05-9.93h.06c5.02,0,9.1,4.45,9.1,9.93,0,.6-.05,1.18-.14,1.75Z"/>
        <path class="cls-25" d="M47.07,79.78c-.3.22-.61.43-.92.62-2.17,1.42-4.75,2.34-7.37,2.27-2.39-.12-4.66-1.12-7.06-1.23-.61-.03-1.22-.04-1.84,0-.4-.28-.76-.61-1.08-.98-4.73-5.94-5.67-20.93,4.79-20.76,1.14.01,2.19.13,3.17.33-4.66.64-8.27,4.98-8.27,10.21,0,5.68,4.25,10.3,9.47,10.3,4.32,0,7.97-3.16,9.1-7.46.25,2.17.24,4.44.01,6.71Z"/>
        <path class="cls-30" d="M29.49,63.52c.56-.21,1.14-.38,1.73-.51,1.45-1.6,3.38-2.68,5.53-2.98-.97-.2-2.03-.31-3.17-.33-4.35-.07-6.72,2.48-7.68,5.91,1.06-.9,2.3-1.6,3.58-2.09Z"/>
        <path class="cls-30" d="M47.05,73.07c-.49,1.88-1.47,3.55-2.78,4.82,0,.24,0,.47,0,.71,0,.97-.06,1.96-.19,2.93.72-.32,1.41-.7,2.06-1.13.31-.2.62-.41.92-.62.22-2.27.23-4.54-.01-6.71Z"/>
        <path class="cls-24" d="M46.91,71.99c-.76,4.64-4.49,8.18-8.96,8.18-5.02,0-9.1-4.45-9.1-9.93s4.05-9.9,9.05-9.93c2,.59,3.64,1.58,4.93,2.87-.39-.21-.83-.32-1.29-.32-.59,0-1.15.19-1.6.51-.63-.21-1.3-.33-1.99-.33-3.65,0-6.62,3.22-6.62,7.2s2.96,7.2,6.62,7.2,6.61-3.22,6.61-7.2c0-1.14-.24-2.22-.67-3.17.26-.42.41-.92.41-1.45,0-.3-.05-.6-.15-.88,1.44,2.03,2.32,4.53,2.75,7.25Z"/>
        <path d="M44.57,70.24c0,3.98-2.96,7.2-6.61,7.2s-6.62-3.22-6.62-7.2,2.96-7.2,6.62-7.2c.69,0,1.36.12,1.99.33.02,0,.04.01.06.02.02,0,.03.01.05.02,1.65.6,3.01,1.89,3.79,3.56.01.01.02.03.03.05.01.01.02.03.03.05.43.95.67,2.03.67,3.17Z"/>
        <path class="cls-31" d="M44.16,64.74c.1.28.15.57.15.88,0,.53-.15,1.02-.41,1.45.43.95.67,2.03.67,3.17,0,3.98-2.96,7.2-6.61,7.2s-6.62-3.22-6.62-7.2,2.96-7.2,6.62-7.2c.69,0,1.36.12,1.99.33.45-.32,1-.51,1.6-.51.47,0,.91.12,1.29.32-1.3-1.29-2.93-2.28-4.93-2.87-4.99.03-9.05,4.48-9.05,9.93s4.08,9.93,9.1,9.93c4.47,0,8.2-3.53,8.96-8.18-.43-2.72-1.31-5.22-2.75-7.25Z"/>
        <path class="cls-11" d="M32.18,71.28c2.95-1.24,6.29-1.5,9.43-.88,1.56.31,3.15.83,4.53,1.65.34.2.67.43,1,.68.19-.8.29-1.64.29-2.5,0-5.68-4.24-10.3-9.47-10.3-.4,0-.8.03-1.2.08-4.66.64-8.27,4.98-8.27,10.21,0,1.05.15,2.06.41,3.01.99-.81,2.1-1.47,3.28-1.97Z"/>
        <path class="cls-25" d="M44.19,65c.44,1.98-1.29,3.71-3.27,3.27-1-.22-1.8-1.03-2.03-2.03-.44-1.98,1.29-3.71,3.27-3.27,1,.22,1.8,1.03,2.03,2.03Z"/>
        <path class="cls-25" d="M36.85,75.53c.31,1.39-.9,2.6-2.29,2.29-.7-.16-1.26-.72-1.42-1.42-.31-1.39.9-2.6,2.29-2.29.7.16,1.26.72,1.42,1.42Z"/>
        <path class="cls-22" d="M39.14,84.47c2.06-.83,4.11-1.85,5.87-3.14-.17.42-.87.9-1.25,1.2-1.39.95-2.99,1.57-4.63,1.94h0Z"/>
        <path d="M25.21,71.05s-1.21.94-2.66.24c0,0,.73,1.76,2.91,1.38l-.25-1.62Z"/>
        <path d="M22.1,68.16s1.14,1.51,2.96,1.07l.09,1.23s-2.84.37-3.05-2.31Z"/>
        <path d="M23.13,65.62s.41,1.86,1.98,1.62v1.29s-2.51-.25-1.98-2.91Z"/>
        <path class="cls-22" d="M95.29,80.25c-1.69.47-3.77.71-4.73,2.33.31-1.53,3-2.37,4.51-2.4-1.94-1.03-4.24-1.2-6.4-.99-2.25.25-4.38.95-6.46,1.86-2.26.97-4.73,1.02-7.06.41h0c-.47-.12-.93-.27-1.38-.44-1.67-.63-3.22-1.59-4.52-2.75-.04-.04.02-.11.06-.07.5.36,1.04.7,1.59,1.01h0c.06.04.11.07.17.1h0c3.32,1.84,7.34,2.62,10.89,1.12,1.99-.87,4.13-1.55,6.34-1.74.05,0,.1-.01.15-.01.06,0,.12-.01.18-.01,1.16-.07,2.33-.03,3.46.21,1.13.25,2.25.62,3.19,1.31.02.01.03.04.01.06Z"/>
        <path d="M91.84,67.16c0,.24,0,.48-.01.72-.01.51-.04,1.02-.09,1.52-.09,1.05-.23,2.07-.42,3-.25,1.22-.6,2.42-1.09,3.57-.43,1-.97,1.97-1.77,2.72-.11.11-.24.21-.36.31-.02.01-.05.01-.07,0-.02-.02-.01-.06.01-.07.09-.07.18-.14.27-.22.37-.32.69-.71.96-1.13,3.9-6.51,2.84-21.49-7.5-19.94-1.11.16-2.13.4-3.07.74-.38.13-.74.27-1.09.44-4.88,2.18-7.32,6.81-7.41,12.76,0,.19,0,.39,0,.59,0,.17,0,.35,0,.52.06,2.22.4,4.44.88,6.65h0c0,.05.02.1.03.14.01.05-.07.08-.09.03-.04-.09-.08-.18-.11-.26h0c-.93-2.23-1.45-4.61-1.74-7.01-.9-6.98,1.27-13.66,8.29-16.48,3.92-1.6,8.8-1.86,11.71,1.79,1.37,1.74,2.13,4.01,2.46,6.4.06.39.1.79.13,1.18.03.29.04.57.06.86.02.4.03.8.03,1.2Z"/>
        <path d="M88.22,67.4c-.37-2.72-1.68-5.16-3.71-6.84-1.71-1.42-3.73-2.17-5.83-2.18-.4,0-.81.02-1.22.08-5.18.69-8.77,5.84-8.02,11.46.13.97.38,1.89.74,2.77.65,1.59,1.66,2.99,2.97,4.08,1.71,1.43,3.76,2.18,5.87,2.18.39,0,.78-.03,1.17-.08,5.17-.69,8.77-5.83,8.02-11.46ZM80.15,78.49c-2.4.32-4.81-.4-6.76-2.02-1.52-1.27-2.63-2.97-3.21-4.9-.17-.55-.29-1.12-.37-1.71-.73-5.43,2.73-10.38,7.7-11.05.03,0,.05,0,.07,0,.35-.05.7-.07,1.05-.07,2.02,0,3.98.73,5.63,2.1,1.95,1.63,3.23,3.98,3.58,6.61.72,5.43-2.73,10.38-7.7,11.05Z"/>
        <path class="cls-25" d="M89.26,77.57c-.27.42-.59.81-.96,1.13-2.21.18-4.35.87-6.34,1.74-3.55,1.5-7.57.72-10.89-1.11h0c-.48-2.21-.83-4.43-.88-6.65.65,1.59,1.66,2.99,2.97,4.08,1.71,1.43,3.76,2.18,5.87,2.18.39,0,.78-.03,1.17-.08,5.17-.69,8.77-5.83,8.02-11.46-.37-2.72-1.68-5.16-3.71-6.84-1.71-1.42-3.73-2.17-5.83-2.18.94-.33,1.97-.58,3.07-.74,10.35-1.55,11.4,13.43,7.5,19.94Z"/>
        <path class="cls-30" d="M86.34,62.54c.41.08.82.18,1.22.31.74.24,1.45.56,2.09,1.01.48.34.91.73,1.31,1.16-.98-4.58-3.85-8.19-9.2-7.39-1.11.16-2.13.4-3.07.74,2.09.01,4.12.77,5.83,2.18.7.58,1.31,1.25,1.83,1.99Z"/>
        <path class="cls-30" d="M73.19,80.31c-.2-1.2-.24-2.43-.14-3.65-1.26-1.08-2.24-2.44-2.87-3.99.06,2.22.4,4.44.88,6.65h0c.68.38,1.39.71,2.12.99Z"/>
        <path class="cls-31" d="M87.85,67.44c-.35-2.63-1.63-4.98-3.58-6.61-1.65-1.37-3.61-2.1-5.63-2.1-.35,0-.7.02-1.05.07-4.88,2.18-7.32,6.81-7.41,12.76.58,1.93,1.69,3.64,3.21,4.9,1.95,1.63,4.35,2.35,6.76,2.02,4.97-.66,8.43-5.62,7.7-11.05ZM85.82,64.92c-.08.58-.33,1.11-.73,1.53.13.43.23.87.29,1.33.53,3.94-1.98,7.53-5.6,8.02s-6.98-2.32-7.51-6.26,1.98-7.53,5.6-8.02c1.33-.18,2.62.09,3.75.69.54-.34,1.18-.48,1.82-.39.73.1,1.38.48,1.83,1.06.45.58.64,1.31.54,2.05Z"/>
        <path d="M79.79,75.79c-3.62.48-6.98-2.32-7.51-6.26s1.98-7.53,5.6-8.02c1.33-.18,2.62.09,3.75.69.01,0,.03.01.05.03.02,0,.03.02.05.03,1.52.84,2.74,2.29,3.33,4.09,0,.01.01.03.02.05,0,.02.01.04.02.06.13.43.23.87.29,1.33.53,3.94-1.98,7.53-5.6,8.02Z"/>
        <path class="cls-11" d="M73.06,69.94c2.95-1.24,6.29-1.5,9.43-.88,1.56.31,3.15.83,4.53,1.65.34.2.67.43,1,.68.19-.8.29-1.64.29-2.5,0-5.68-4.24-10.3-9.47-10.3-.4,0-.8.03-1.2.08-4.66.64-8.27,4.98-8.27,10.21,0,1.05.15,2.06.41,3.01.99-.81,2.1-1.47,3.28-1.97Z"/>
        <path class="cls-25" d="M85.77,64.91c-.2,1.49-1.57,2.53-3.05,2.33s-2.53-1.57-2.33-3.05c.2-1.49,1.57-2.53,3.05-2.33,1.49.2,2.53,1.57,2.33,3.05Z"/>
        <path class="cls-25" d="M78.09,74.51c-.14,1.04-1.1,1.77-2.14,1.63-1.04-.14-1.77-1.1-1.63-2.14.14-1.04,1.1-1.77,2.14-1.63,1.04.14,1.77,1.1,1.63,2.14Z"/>
        <path d="M85.28,62.87c-.45-.59-1.1-.97-1.83-1.06-.64-.09-1.28.05-1.82.39-.08.05-.15.1-.23.15-.59.45-.96,1.1-1.06,1.83-.1.73.1,1.46.54,2.05s1.1.97,1.83,1.06c.12.02.25.03.37.03.6,0,1.19-.19,1.67-.57.12-.09.23-.19.33-.3.4-.42.65-.95.73-1.53.1-.73-.1-1.46-.54-2.05ZM85.73,64.9c-.07.55-.3,1.04-.67,1.44-.11.12-.23.23-.36.33-.57.43-1.27.62-1.98.52-.7-.1-1.33-.46-1.77-1.02-.43-.57-.62-1.27-.52-1.98.1-.7.46-1.33,1.02-1.77.08-.07.18-.12.27-.18.41-.24.87-.37,1.35-.37.12,0,.24,0,.36.03.71.09,1.33.46,1.77,1.02.36.47.55,1.03.55,1.61,0,.12-.01.24-.03.36Z"/>
        <path class="cls-22" d="M79.54,82.92c-1.67-.15-3.34-.56-4.84-1.31-.5-.27-.98-.57-1.39-.96-.02-.02-.02-.05,0-.07,1.92,1.07,4.08,1.78,6.23,2.34h0Z"/>
        <path d="M91.57,67.76s1.33.77,2.67-.12c0,0-.49,1.84-2.7,1.75l.03-1.63Z"/>
        <path d="M94.27,64.49s-.93,1.65-2.79,1.46l.08,1.23s2.87,0,2.72-2.69Z"/>
        <path d="M92.91,62.11s-.16,1.9-1.75,1.87l.17,1.28s2.45-.58,1.58-3.15Z"/>
        <path class="cls-15" d="M62.84,7.21c.55.38,1,.91,1.34,1.49.49.87.7,1.88.59,2.87,0,.04-.05.07-.08.04-2.73-2.72-6.91-3.24-10.39-1.84-3.39,1.29-6.15,3.69-8.96,5.97.32-.16.64-.29.97-.4,1.25-.43,2.57-.61,3.88-.65,1.47-.4,2.99-.62,4.49-.68.88-.03,1.77-.02,2.65.05-5.55-1.64-8.43-.25-8.43-.25,7.95-7.42,16.7-1.58,20.64,1.87-.99-2-2.07-3.96-3.51-5.67-.91-1.08-1.93-2.15-3.21-2.78Z"/>
        <path class="cls-15" d="M41,27.17c-.18.72-.28,1.78-.4,2.52l-.07,1.26c-.04.37-.02.89,0,1.26,0,.61.07,1.28.17,1.88.03.21.05.42.11.62.51,2.44,1.82,4.79,4.05,6.08-.55-3.85,1.73-7.68,4.82-9.85.31-.24.66-.45,1.01-.65-4.89,1.41-6.63,6.69-6.63,6.69-4.5-4.29-1.04-13.37-1.04-13.37-.66,3.15.92,5.69.92,5.69-.73-9.08,8.08-13.35,11.8-14.74-7.36.65-13.38,4.22-14.74,12.59Z"/>
        <path class="cls-13" d="M99.46,94.96c1.44-.7,3.09-1.46,4.47-2.26.39-.23,1.78-1.02,2.17-1.25,1.62-1.07,3.24-2.19,4.71-3.46,1.74-1.57,3.5-3.32,4.67-5.39,0,0-4.44,7.45-22.38,9.35,0,0,4.4.98,8.35.05,0,0-11.5,5.6-20.38,4.59,0,0,4.9,1.74,10.1.7,0,0-9.64,3.63-22.34,5.83,9.42-1.18,18.7-3.63,27.54-6.87.76-.32,2.32-.97,3.09-1.28Z"/>
        <path class="cls-13" d="M103.47,78.44s3.02.49,6.22.16c1.46-.2,2.88-.66,4.19-1.33.77-.61,1.49-1.27,2.13-2.02,2.06-2.45,3.09-5.5,3.63-8.61-.02.04-.04.08-.05.13-1.19,4.06-5.07,8.97-16.12,11.68Z"/>
        <path class="cls-13" d="M104.54,84.97c1.17.21,2.36.33,3.52.31.42-.14.83-.32,1.21-.53,3.08-1.7,5.28-4.63,7.04-7.62.31-.5.59-1.01.88-1.52-.56.59-1.21,1.09-1.91,1.53-1.28,2.01-4.53,6.05-10.74,7.84Z"/>
        <path class="cls-13" d="M12.75,84.74c3.32,3.1,6.94,4.57,11.38,4.71,3.08-.44,3.73-1.9,3.73-1.9-6.9,1.48-11.94-1.89-14.47-4.2-1.2-.31-2.34-.83-3.33-1.56.81,1.06,1.73,2.05,2.69,2.95Z"/>
        <path class="cls-13" d="M17.37,83.04c.57.21,1.17.34,1.77.45,2.27-.19,2.96-1.46,2.96-1.46-4.57.03-7.6-1.5-9.47-2.98-.19-.11-.37-.23-.54-.37,1.15,2.05,3.05,3.62,5.28,4.36Z"/>
        <path class="cls-13" d="M41.64,101.16c3.15.12,6.05-.8,6.05-.8-14.94.41-25.14-4.96-25.14-4.96,3.84,1.11,6.75-.95,6.75-.95-1.88.3-3.84,0-3.84,0,4.57-.18,5.88-4.02,5.88-4.02-7.04,3.18-12.84.18-14.97-1.22-1.02-.19-2-.55-2.85-1.09.9.93,1.9,1.76,2.96,2.48,3.9,2.71,7.92,3.07,12.33,1.63-.51.27-1.05.49-1.59.66-3,1.49-6.69,1.27-9.87.47,3.1,2.23,6.62,3.87,10.16,5.27,8.87,3.38,18.35,4.96,27.83,5.24,2.17.03,4.35-.02,6.52-.14-11.63.07-20.22-2.57-20.22-2.57Z"/>
      </g>
    </g>
  </g>
</svg>